# MagicaVoxel @ Ephtracy

# group
o 

# material
mtllib 11.mtl
usemtl palette

# normals
vn -1 0 0
vn 1 0 0
vn 0 0 1
vn 0 0 -1
vn 0 -1 0
vn 0 1 0

# texcoords
vt 0.623047 0.5
vt 0.630859 0.5
vt 0.634766 0.5
vt 0.654297 0.5

# verts
v -0.2 -0.2 -0.6
v -0.2 -0.2 -0.7
v -0.2 -0.1 1.2
v -0.2 -0.1 1
v -0.2 -0.1 -0.6
v -0.2 -0.1 -0.7
v -0.2 -0.1 -1.1
v -0.2 -0.1 -1.3
v -0.2 0.1 1.2
v -0.2 0.1 1
v -0.2 0.1 -1.1
v -0.2 0.1 -1.3
v -0.1 -0.2 1.2
v -0.1 -0.2 1
v -0.1 -0.2 -1.1
v -0.1 -0.2 -1.3
v -0.1 -0.1 1.2
v -0.1 -0.1 1
v -0.1 -0.1 0.8
v -0.1 -0.1 0.7
v -0.1 -0.1 0.4
v -0.1 -0.1 0.2
v -0.1 -0.1 0.1
v -0.1 -0.1 -0.2
v -0.1 -0.1 -0.4
v -0.1 -0.1 -0.5
v -0.1 -0.1 -0.6
v -0.1 -0.1 -0.7
v -0.1 -0.1 -0.9
v -0.1 -0.1 -1
v -0.1 -0.1 -1.1
v -0.1 -0.1 -1.3
v -0.1 0 0.7
v -0.1 0 0.5
v -0.1 0 0.4
v -0.1 0 0.2
v -0.1 0 0.1
v -0.1 0 -0.0999999
v -0.1 0 -0.3
v -0.1 0 -0.4
v -0.1 0 -0.5
v -0.1 0 -0.7
v -0.1 0 -0.9
v -0.1 0 -1
v -0.1 0 -1.1
v -0.1 0.1 1.2
v -0.1 0.1 1
v -0.1 0.1 0.8
v -0.1 0.1 0.5
v -0.1 0.1 0.2
v -0.1 0.1 0.1
v -0.1 0.1 -0.0999999
v -0.1 0.1 -0.2
v -0.1 0.1 -0.3
v -0.1 0.1 -0.4
v -0.1 0.1 -0.7
v -0.1 0.1 -0.9
v -0.1 0.1 -1
v -0.1 0.1 -1.1
v -0.1 0.1 -1.3
v -0.1 0.2 1.2
v -0.1 0.2 1
v -0.1 0.2 -1.1
v -0.1 0.2 -1.3
v -0.1 -0.2 -0.6
v -0.1 -0.2 -0.7
v -0.1 -0.1 -0.6
v -0.1 -0.1 -0.7
v 0.1 -0.2 1.2
v 0.1 -0.2 1
v 0.1 -0.2 -1.1
v 0.1 -0.2 -1.3
v 0.1 -0.1 1.2
v 0.1 -0.1 1
v 0.1 -0.1 0.9
v 0.1 -0.1 0.5
v 0.1 -0.1 0.4
v 0.1 -0.1 0.3
v 0.1 -0.1 0.2
v 0.1 -0.1 0
v 0.1 -0.1 -0.0999999
v 0.1 -0.1 -0.2
v 0.1 -0.1 -0.4
v 0.1 -0.1 -0.5
v 0.1 -0.1 -0.9
v 0.1 -0.1 -1.1
v 0.1 -0.1 -1.3
v 0.1 0 1
v 0.1 0 0.9
v 0.1 0 0.7
v 0.1 0 0.5
v 0.1 0 0.3
v 0.1 0 0.2
v 0.1 0 0
v 0.1 0 -0.0999999
v 0.1 0 -0.2
v 0.1 0 -0.3
v 0.1 0 -0.4
v 0.1 0 -0.5
v 0.1 0 -0.6
v 0.1 0 -0.9
v 0.1 0 -1
v 0.1 0.1 1.2
v 0.1 0.1 1
v 0.1 0.1 0.7
v 0.1 0.1 0.4
v 0.1 0.1 0.2
v 0.1 0.1 -0.3
v 0.1 0.1 -0.4
v 0.1 0.1 -0.5
v 0.1 0.1 -0.6
v 0.1 0.1 -1
v 0.1 0.1 -1.1
v 0.1 0.1 -1.3
v 0.1 0.2 1.2
v 0.1 0.2 1
v 0.1 0.2 -1.1
v 0.1 0.2 -1.3
v 0.2 -0.1 1.2
v 0.2 -0.1 1
v 0.2 -0.1 -1.1
v 0.2 -0.1 -1.3
v 0.2 0.1 1.2
v 0.2 0.1 1
v 0.2 0.1 -1.1
v 0.2 0.1 -1.3
v -0.2 -0.1 1.2
v -0.2 0.1 1.2
v -0.1 -0.2 1.2
v -0.1 -0.1 1.2
v -0.1 0.1 1.2
v -0.1 0.2 1.2
v 0.1 -0.2 1.2
v 0.1 -0.1 1.2
v 0.1 0.1 1.2
v 0.1 0.2 1.2
v 0.2 -0.1 1.2
v 0.2 0.1 1.2
v -0.2 -0.2 -0.6
v -0.2 -0.1 -0.6
v -0.1 -0.2 -0.6
v -0.1 -0.1 -0.6
v -0.2 -0.1 -1.1
v -0.2 0.1 -1.1
v -0.1 -0.2 -1.1
v -0.1 -0.1 -1.1
v -0.1 0 -1.1
v -0.1 0.1 -1.1
v -0.1 0.2 -1.1
v 0 -0.1 -1.1
v 0.1 -0.2 -1.1
v 0.1 -0.1 -1.1
v 0.1 0.1 -1.1
v 0.1 0.2 -1.1
v 0.2 -0.1 -1.1
v 0.2 0.1 -1.1
v -0.2 -0.1 1
v -0.2 0.1 1
v -0.1 -0.2 1
v -0.1 -0.1 1
v -0.1 0.1 1
v -0.1 0.2 1
v 0 0.1 1
v 0.1 -0.2 1
v 0.1 -0.1 1
v 0.1 0 1
v 0.1 0.1 1
v 0.1 0.2 1
v 0.2 -0.1 1
v 0.2 0.1 1
v -0.2 -0.2 -0.7
v -0.2 -0.1 -0.7
v -0.1 -0.2 -0.7
v -0.1 -0.1 -0.7
v -0.2 -0.1 -1.3
v -0.2 0.1 -1.3
v -0.1 -0.2 -1.3
v -0.1 -0.1 -1.3
v -0.1 0.1 -1.3
v -0.1 0.2 -1.3
v 0.1 -0.2 -1.3
v 0.1 -0.1 -1.3
v 0.1 0.1 -1.3
v 0.1 0.2 -1.3
v 0.2 -0.1 -1.3
v 0.2 0.1 -1.3
v -0.1 -0.2 1.2
v 0.1 -0.2 1.2
v -0.1 -0.2 1
v 0.1 -0.2 1
v -0.2 -0.2 -0.6
v -0.1 -0.2 -0.6
v -0.2 -0.2 -0.7
v -0.1 -0.2 -0.7
v -0.1 -0.2 -1.1
v 0.1 -0.2 -1.1
v -0.1 -0.2 -1.3
v 0.1 -0.2 -1.3
v -0.2 -0.1 1.2
v -0.1 -0.1 1.2
v 0.1 -0.1 1.2
v 0.2 -0.1 1.2
v -0.2 -0.1 1
v -0.1 -0.1 1
v 0.1 -0.1 1
v 0.2 -0.1 1
v 0 -0.1 0.9
v 0.1 -0.1 0.9
v -0.1 -0.1 0.8
v 0 -0.1 0.8
v -0.1 -0.1 0.7
v 0 -0.1 0.7
v 0 -0.1 0.5
v 0.1 -0.1 0.5
v -0.1 -0.1 0.4
v 0.1 -0.1 0.4
v 0 -0.1 0.3
v 0.1 -0.1 0.3
v -0.1 -0.1 0.2
v 0 -0.1 0.2
v 0.1 -0.1 0.2
v -0.1 -0.1 0.1
v 0 -0.1 0.1
v 0 -0.1 0
v 0.1 -0.1 0
v 0 -0.1 -0.0999999
v 0.1 -0.1 -0.0999999
v -0.1 -0.1 -0.2
v 0.1 -0.1 -0.2
v -0.1 -0.1 -0.4
v 0.1 -0.1 -0.4
v -0.1 -0.1 -0.5
v 0.1 -0.1 -0.5
v -0.1 -0.1 -0.6
v -0.1 -0.1 -0.7
v -0.1 -0.1 -0.9
v 0.1 -0.1 -0.9
v -0.1 -0.1 -1
v 0 -0.1 -1
v -0.2 -0.1 -1.1
v -0.1 -0.1 -1.1
v 0 -0.1 -1.1
v 0.1 -0.1 -1.1
v 0.2 -0.1 -1.1
v -0.2 -0.1 -1.3
v -0.1 -0.1 -1.3
v 0.1 -0.1 -1.3
v 0.2 -0.1 -1.3
v -0.2 -0.1 -0.6
v -0.1 -0.1 -0.6
v -0.2 -0.1 -0.7
v -0.1 -0.1 -0.7
v -0.2 0.1 1.2
v -0.1 0.1 1.2
v 0.1 0.1 1.2
v 0.2 0.1 1.2
v -0.2 0.1 1
v -0.1 0.1 1
v 0 0.1 1
v 0.1 0.1 1
v 0.2 0.1 1
v -0.1 0.1 0.8
v 0 0.1 0.8
v 0 0.1 0.7
v 0.1 0.1 0.7
v -0.1 0.1 0.5
v 0 0.1 0.5
v 0 0.1 0.4
v 0.1 0.1 0.4
v -0.1 0.1 0.2
v 0 0.1 0.2
v 0.1 0.1 0.2
v -0.1 0.1 0.1
v 0 0.1 0.1
v -0.1 0.1 -0.0999999
v 0 0.1 -0.0999999
v -0.1 0.1 -0.2
v 0 0.1 -0.2
v -0.1 0.1 -0.3
v 0.1 0.1 -0.3
v -0.1 0.1 -0.4
v 0.1 0.1 -0.4
v 0 0.1 -0.5
v 0.1 0.1 -0.5
v 0 0.1 -0.6
v 0.1 0.1 -0.6
v -0.1 0.1 -0.7
v 0 0.1 -0.7
v -0.1 0.1 -0.9
v 0 0.1 -0.9
v -0.1 0.1 -1
v 0.1 0.1 -1
v -0.2 0.1 -1.1
v -0.1 0.1 -1.1
v 0.1 0.1 -1.1
v 0.2 0.1 -1.1
v -0.2 0.1 -1.3
v -0.1 0.1 -1.3
v 0.1 0.1 -1.3
v 0.2 0.1 -1.3
v -0.1 0.2 1.2
v 0.1 0.2 1.2
v -0.1 0.2 1
v 0.1 0.2 1
v -0.1 0.2 -1.1
v 0.1 0.2 -1.1
v -0.1 0.2 -1.3
v 0.1 0.2 -1.3

# faces
f 5/4/1 2/4/1 1/4/1
f 6/4/1 2/4/1 5/4/1
f 9/2/1 4/2/1 3/2/1
f 10/2/1 4/2/1 9/2/1
f 11/2/1 8/2/1 7/2/1
f 12/2/1 8/2/1 11/2/1
f 17/2/1 14/2/1 13/2/1
f 18/2/1 14/2/1 17/2/1
f 31/2/1 16/2/1 15/2/1
f 32/2/1 16/2/1 31/2/1
f 33/4/1 20/4/1 19/4/1
f 33/1/1 21/1/1 20/1/1
f 34/1/1 21/1/1 33/1/1
f 35/4/1 22/4/1 21/4/1
f 35/1/1 21/1/1 34/1/1
f 36/1/1 23/1/1 22/1/1
f 36/4/1 22/4/1 35/4/1
f 37/4/1 24/4/1 23/4/1
f 37/1/1 23/1/1 36/1/1
f 38/4/1 24/4/1 37/4/1
f 39/1/1 25/1/1 24/1/1
f 40/4/1 26/4/1 25/4/1
f 40/1/1 25/1/1 39/1/1
f 41/1/1 27/1/1 26/1/1
f 41/4/1 26/4/1 40/4/1
f 41/1/1 28/1/1 27/1/1
f 41/1/1 29/1/1 28/1/1
f 42/1/1 29/1/1 41/1/1
f 43/4/1 30/4/1 29/4/1
f 43/1/1 29/1/1 42/1/1
f 44/1/1 31/1/1 30/1/1
f 44/4/1 30/4/1 43/4/1
f 45/1/1 31/1/1 44/1/1
f 47/1/1 19/1/1 18/1/1
f 48/4/1 34/4/1 33/4/1
f 48/4/1 33/4/1 19/4/1
f 48/1/1 19/1/1 47/1/1
f 49/1/1 35/1/1 34/1/1
f 49/4/1 34/4/1 48/4/1
f 49/1/1 36/1/1 35/1/1
f 50/4/1 37/4/1 36/4/1
f 50/1/1 36/1/1 49/1/1
f 51/1/1 38/1/1 37/1/1
f 51/4/1 37/4/1 50/4/1
f 52/4/1 24/4/1 38/4/1
f 52/1/1 38/1/1 51/1/1
f 53/1/1 39/1/1 24/1/1
f 53/4/1 24/4/1 52/4/1
f 54/4/1 40/4/1 39/4/1
f 54/1/1 39/1/1 53/1/1
f 55/1/1 42/1/1 41/1/1
f 55/4/1 40/4/1 54/4/1
f 55/1/1 41/1/1 40/1/1
f 56/4/1 43/4/1 42/4/1
f 56/1/1 42/1/1 55/1/1
f 57/1/1 44/1/1 43/1/1
f 57/4/1 43/4/1 56/4/1
f 58/4/1 45/4/1 44/4/1
f 58/1/1 44/1/1 57/1/1
f 59/4/1 45/4/1 58/4/1
f 61/2/1 47/2/1 46/2/1
f 62/2/1 47/2/1 61/2/1
f 63/2/1 60/2/1 59/2/1
f 64/2/1 60/2/1 63/2/1
f 65/4/2 66/4/2 67/4/2
f 67/4/2 66/4/2 68/4/2
f 69/2/2 70/2/2 73/2/2
f 73/2/2 70/2/2 74/2/2
f 71/2/2 72/2/2 86/2/2
f 86/2/2 72/2/2 87/2/2
f 74/1/2 75/1/2 88/1/2
f 75/4/2 76/4/2 89/4/2
f 88/1/2 75/1/2 89/1/2
f 89/4/2 76/4/2 90/4/2
f 76/1/2 77/1/2 91/1/2
f 90/4/2 76/4/2 91/4/2
f 77/4/2 78/4/2 92/4/2
f 78/1/2 79/1/2 92/1/2
f 79/4/2 80/4/2 93/4/2
f 92/1/2 79/1/2 93/1/2
f 80/1/2 81/1/2 94/1/2
f 93/4/2 80/4/2 94/4/2
f 81/4/2 82/4/2 95/4/2
f 94/1/2 81/1/2 95/1/2
f 82/1/2 83/1/2 96/1/2
f 95/4/2 82/4/2 96/4/2
f 96/1/2 83/1/2 97/1/2
f 83/4/2 84/4/2 98/4/2
f 97/1/2 83/1/2 98/1/2
f 84/1/2 85/1/2 99/1/2
f 98/4/2 84/4/2 99/4/2
f 99/1/2 85/1/2 100/1/2
f 85/4/2 86/4/2 101/4/2
f 100/1/2 85/1/2 101/1/2
f 101/4/2 86/4/2 102/4/2
f 89/4/2 90/4/2 104/4/2
f 88/4/2 89/4/2 104/4/2
f 90/1/2 91/1/2 105/1/2
f 104/4/2 90/4/2 105/4/2
f 91/1/2 77/1/2 106/1/2
f 105/1/2 91/1/2 106/1/2
f 77/4/2 92/4/2 106/4/2
f 92/4/2 93/4/2 106/4/2
f 93/1/2 94/1/2 107/1/2
f 106/4/2 93/4/2 107/4/2
f 94/1/2 95/1/2 107/1/2
f 96/1/2 97/1/2 107/1/2
f 95/1/2 96/1/2 107/1/2
f 97/4/2 98/4/2 108/4/2
f 107/1/2 97/1/2 108/1/2
f 98/1/2 99/1/2 109/1/2
f 108/4/2 98/4/2 109/4/2
f 99/4/2 100/4/2 110/4/2
f 109/1/2 99/1/2 110/1/2
f 100/1/2 101/1/2 111/1/2
f 110/4/2 100/4/2 111/4/2
f 101/1/2 102/1/2 111/1/2
f 102/4/2 86/4/2 112/4/2
f 111/1/2 102/1/2 112/1/2
f 112/4/2 86/4/2 113/4/2
f 103/2/2 104/2/2 115/2/2
f 115/2/2 104/2/2 116/2/2
f 113/2/2 114/2/2 117/2/2
f 117/2/2 114/2/2 118/2/2
f 119/2/2 120/2/2 123/2/2
f 123/2/2 120/2/2 124/2/2
f 121/2/2 122/2/2 125/2/2
f 125/2/2 122/2/2 126/2/2
f 130/2/3 128/2/3 127/2/3
f 131/2/3 128/2/3 130/2/3
f 133/2/3 130/2/3 129/2/3
f 134/3/3 131/3/3 130/3/3
f 134/2/3 130/2/3 133/2/3
f 135/2/3 132/2/3 131/2/3
f 135/3/3 131/3/3 134/3/3
f 136/2/3 132/2/3 135/2/3
f 137/2/3 135/2/3 134/2/3
f 138/2/3 135/2/3 137/2/3
f 141/4/3 140/4/3 139/4/3
f 142/4/3 140/4/3 141/4/3
f 146/2/3 144/2/3 143/2/3
f 147/2/3 144/2/3 146/2/3
f 148/2/3 144/2/3 147/2/3
f 150/2/3 146/2/3 145/2/3
f 151/2/3 150/2/3 145/2/3
f 152/2/3 150/2/3 151/2/3
f 153/2/3 149/2/3 148/2/3
f 154/2/3 149/2/3 153/2/3
f 155/2/3 153/2/3 152/2/3
f 156/2/3 153/2/3 155/2/3
f 157/2/4 158/2/4 160/2/4
f 160/2/4 158/2/4 161/2/4
f 161/2/4 162/2/4 163/2/4
f 159/2/4 160/2/4 164/2/4
f 164/2/4 160/2/4 165/2/4
f 163/2/4 162/2/4 167/2/4
f 167/2/4 162/2/4 168/2/4
f 165/2/4 166/2/4 169/2/4
f 166/2/4 167/2/4 169/2/4
f 169/2/4 167/2/4 170/2/4
f 171/4/4 172/4/4 173/4/4
f 173/4/4 172/4/4 174/4/4
f 175/2/4 176/2/4 178/2/4
f 178/2/4 176/2/4 179/2/4
f 177/2/4 178/2/4 181/2/4
f 178/3/4 179/3/4 182/3/4
f 181/2/4 178/2/4 182/2/4
f 179/2/4 180/2/4 183/2/4
f 182/3/4 179/3/4 183/3/4
f 183/2/4 180/2/4 184/2/4
f 182/2/4 183/2/4 185/2/4
f 185/2/4 183/2/4 186/2/4
f 189/2/5 188/2/5 187/2/5
f 190/2/5 188/2/5 189/2/5
f 193/4/5 192/4/5 191/4/5
f 194/4/5 192/4/5 193/4/5
f 197/2/5 196/2/5 195/2/5
f 198/2/5 196/2/5 197/2/5
f 203/2/5 200/2/5 199/2/5
f 204/2/5 200/2/5 203/2/5
f 205/2/5 202/2/5 201/2/5
f 206/2/5 202/2/5 205/2/5
f 207/1/5 205/1/5 204/1/5
f 208/1/5 205/1/5 207/1/5
f 209/1/5 207/1/5 204/1/5
f 210/4/5 208/4/5 207/4/5
f 210/1/5 207/1/5 209/1/5
f 211/4/5 210/4/5 209/4/5
f 212/4/5 208/4/5 210/4/5
f 212/4/5 210/4/5 211/4/5
f 213/1/5 212/1/5 211/1/5
f 213/4/5 208/4/5 212/4/5
f 214/4/5 208/4/5 213/4/5
f 215/1/5 213/1/5 211/1/5
f 215/1/5 214/1/5 213/1/5
f 216/1/5 214/1/5 215/1/5
f 217/4/5 216/4/5 215/4/5
f 218/4/5 216/4/5 217/4/5
f 219/4/5 217/4/5 215/4/5
f 220/1/5 218/1/5 217/1/5
f 220/4/5 217/4/5 219/4/5
f 221/1/5 218/1/5 220/1/5
f 222/1/5 220/1/5 219/1/5
f 223/4/5 221/4/5 220/4/5
f 223/1/5 220/1/5 222/1/5
f 224/4/5 223/4/5 222/4/5
f 224/4/5 221/4/5 223/4/5
f 225/4/5 221/4/5 224/4/5
f 226/4/5 224/4/5 222/4/5
f 226/1/5 225/1/5 224/1/5
f 227/1/5 225/1/5 226/1/5
f 228/4/5 226/4/5 222/4/5
f 228/4/5 227/4/5 226/4/5
f 229/4/5 227/4/5 228/4/5
f 230/1/5 229/1/5 228/1/5
f 231/1/5 229/1/5 230/1/5
f 232/4/5 231/4/5 230/4/5
f 233/4/5 231/4/5 232/4/5
f 234/1/5 233/1/5 232/1/5
f 235/1/5 233/1/5 234/1/5
f 236/1/5 233/1/5 235/1/5
f 237/1/5 233/1/5 236/1/5
f 238/4/5 237/4/5 236/4/5
f 239/4/5 237/4/5 238/4/5
f 241/1/5 239/1/5 238/1/5
f 242/4/5 237/4/5 239/4/5
f 242/1/5 239/1/5 241/1/5
f 243/4/5 237/4/5 242/4/5
f 245/2/5 241/2/5 240/2/5
f 246/2/5 241/2/5 245/2/5
f 247/2/5 244/2/5 243/2/5
f 248/2/5 244/2/5 247/2/5
f 249/4/6 250/4/6 251/4/6
f 251/4/6 250/4/6 252/4/6
f 253/2/6 254/2/6 257/2/6
f 257/2/6 254/2/6 258/2/6
f 255/2/6 256/2/6 260/2/6
f 260/2/6 256/2/6 261/2/6
f 258/1/6 259/1/6 262/1/6
f 259/4/6 260/4/6 263/4/6
f 262/1/6 259/1/6 263/1/6
f 262/4/6 263/4/6 264/4/6
f 263/4/6 260/4/6 264/4/6
f 264/4/6 260/4/6 265/4/6
f 262/4/6 264/4/6 266/4/6
f 264/1/6 265/1/6 267/1/6
f 266/4/6 264/4/6 267/4/6
f 266/1/6 267/1/6 268/1/6
f 267/1/6 265/1/6 268/1/6
f 268/1/6 265/1/6 269/1/6
f 266/1/6 268/1/6 270/1/6
f 268/4/6 269/4/6 271/4/6
f 270/1/6 268/1/6 271/1/6
f 271/4/6 269/4/6 272/4/6
f 270/4/6 271/4/6 273/4/6
f 271/1/6 272/1/6 274/1/6
f 273/4/6 271/4/6 274/4/6
f 273/1/6 274/1/6 275/1/6
f 274/1/6 272/1/6 276/1/6
f 275/1/6 274/1/6 276/1/6
f 275/4/6 276/4/6 277/4/6
f 276/1/6 272/1/6 278/1/6
f 277/4/6 276/4/6 278/4/6
f 277/1/6 278/1/6 279/1/6
f 278/1/6 272/1/6 280/1/6
f 279/1/6 278/1/6 280/1/6
f 279/4/6 280/4/6 281/4/6
f 281/4/6 280/4/6 282/4/6
f 281/1/6 282/1/6 283/1/6
f 283/1/6 282/1/6 284/1/6
f 281/1/6 283/1/6 285/1/6
f 283/4/6 284/4/6 285/4/6
f 285/4/6 284/4/6 286/4/6
f 281/1/6 285/1/6 287/1/6
f 285/1/6 286/1/6 287/1/6
f 287/1/6 286/1/6 288/1/6
f 287/4/6 288/4/6 289/4/6
f 288/1/6 286/1/6 290/1/6
f 289/4/6 288/4/6 290/4/6
f 289/1/6 290/1/6 291/1/6
f 290/1/6 286/1/6 292/1/6
f 291/1/6 290/1/6 292/1/6
f 291/4/6 292/4/6 294/4/6
f 294/4/6 292/4/6 295/4/6
f 293/2/6 294/2/6 297/2/6
f 297/2/6 294/2/6 298/2/6
f 295/2/6 296/2/6 299/2/6
f 299/2/6 296/2/6 300/2/6
f 301/2/6 302/2/6 303/2/6
f 303/2/6 302/2/6 304/2/6
f 305/2/6 306/2/6 307/2/6
f 307/2/6 306/2/6 308/2/6
