# MagicaVoxel @ Ephtracy

# group
o 

# material
mtllib untitled.mtl
usemtl palette

# normals
vn -1 0 0
vn 1 0 0
vn 0 0 1
vn 0 0 -1
vn 0 -1 0
vn 0 1 0

# texcoords
vt 0.0410156 0.5
vt 0.396484 0.5
vt 0.986328 0.5
vt 0.994141 0.5

# verts
v -0.7 0.7 1.5
v -0.7 0.7 1.4
v -0.7 0.7 1.3
v -0.7 0.7 1.2
v -0.7 0.8 1.4
v -0.7 0.8 1.3
v -0.7 0.9 1.5
v -0.7 0.9 1.2
v -0.6 0.7 1.6
v -0.6 0.7 1.5
v -0.6 0.7 1.2
v -0.6 0.7 1.1
v -0.6 0.8 1.6
v -0.6 0.8 1.5
v -0.6 0.9 1.6
v -0.6 0.9 1.5
v -0.6 0.9 1.3
v -0.6 0.9 1.2
v -0.6 0.9 1.1
v -0.6 1 1.5
v -0.6 1 1.3
v -0.6 1 1.2
v -0.5 0.7 1.4
v -0.5 0.7 1.3
v -0.5 0.8 1.4
v -0.5 0.8 1.3
v -0.5 1 1.4
v -0.5 1 1.3
v -0.5 1.3 1.4
v -0.5 1.3 1.3
v -0.3 0.7 1.5
v -0.3 0.7 1.3
v -0.3 0.7 1.2
v -0.3 0.8 1.5
v -0.3 0.8 1.4
v -0.3 0.8 1.3
v -0.3 0.8 1.2
v -0.6 0.7 1.5
v -0.6 0.7 1.4
v -0.6 0.7 1.3
v -0.6 0.7 1.2
v -0.6 0.8 1.5
v -0.6 0.8 1.4
v -0.6 0.8 1.3
v -0.6 0.8 1.2
v -0.4 0.7 1.4
v -0.4 0.7 1.3
v -0.4 0.8 1.4
v -0.4 0.8 1.3
v -0.4 1 1.4
v -0.4 1 1.3
v -0.4 1.3 1.4
v -0.4 1.3 1.3
v -0.3 0.7 1.6
v -0.3 0.7 1.5
v -0.3 0.7 1.2
v -0.3 0.7 1.1
v -0.3 0.8 1.5
v -0.3 0.9 1.6
v -0.3 0.9 1.5
v -0.3 0.9 1.4
v -0.3 0.9 1.3
v -0.3 0.9 1.2
v -0.3 0.9 1.1
v -0.3 1 1.5
v -0.3 1 1.2
v -0.2 0.7 1.5
v -0.2 0.7 1.3
v -0.2 0.7 1.2
v -0.2 0.8 1.5
v -0.2 0.8 1.4
v -0.2 0.9 1.5
v -0.2 0.9 1.4
v -0.2 0.9 1.3
v -0.2 0.9 1.2
v -0.6 0.7 1.6
v -0.6 0.8 1.6
v -0.6 0.9 1.6
v -0.5 0.7 1.6
v -0.5 0.8 1.6
v -0.5 0.9 1.6
v -0.3 0.7 1.6
v -0.3 0.9 1.6
v -0.7 0.7 1.5
v -0.7 0.9 1.5
v -0.6 0.7 1.5
v -0.6 0.8 1.5
v -0.6 0.9 1.5
v -0.6 1 1.5
v -0.5 0.9 1.5
v -0.3 0.7 1.5
v -0.3 0.8 1.5
v -0.3 0.9 1.5
v -0.3 1 1.5
v -0.2 0.7 1.5
v -0.2 0.8 1.5
v -0.2 0.9 1.5
v -0.5 0.7 1.4
v -0.5 0.8 1.4
v -0.5 1 1.4
v -0.5 1.3 1.4
v -0.4 0.7 1.4
v -0.4 0.8 1.4
v -0.4 1 1.4
v -0.4 1.3 1.4
v -0.6 0.7 1.2
v -0.6 0.8 1.2
v -0.5 0.7 1.2
v -0.5 0.8 1.2
v -0.4 0.7 1.2
v -0.4 0.8 1.2
v -0.3 0.7 1.2
v -0.3 0.8 1.2
v -0.6 0.7 1.5
v -0.6 0.8 1.5
v -0.5 0.7 1.5
v -0.5 0.8 1.5
v -0.4 0.8 1.5
v -0.3 0.7 1.5
v -0.3 0.8 1.5
v -0.5 0.7 1.3
v -0.5 0.8 1.3
v -0.5 1 1.3
v -0.5 1.3 1.3
v -0.4 0.7 1.3
v -0.4 0.8 1.3
v -0.4 1 1.3
v -0.4 1.3 1.3
v -0.7 0.7 1.2
v -0.7 0.9 1.2
v -0.6 0.7 1.2
v -0.6 0.9 1.2
v -0.6 1 1.2
v -0.5 0.9 1.2
v -0.5 1 1.2
v -0.3 0.7 1.2
v -0.3 0.9 1.2
v -0.3 1 1.2
v -0.2 0.7 1.2
v -0.2 0.9 1.2
v -0.6 0.7 1.1
v -0.6 0.9 1.1
v -0.5 0.7 1.1
v -0.5 0.8 1.1
v -0.4 0.7 1.1
v -0.4 0.8 1.1
v -0.3 0.7 1.1
v -0.3 0.9 1.1
v -0.6 0.7 1.6
v -0.5 0.7 1.6
v -0.3 0.7 1.6
v -0.7 0.7 1.5
v -0.6 0.7 1.5
v -0.5 0.7 1.5
v -0.3 0.7 1.5
v -0.2 0.7 1.5
v -0.7 0.7 1.4
v -0.6 0.7 1.4
v -0.5 0.7 1.4
v -0.4 0.7 1.4
v -0.7 0.7 1.3
v -0.6 0.7 1.3
v -0.5 0.7 1.3
v -0.4 0.7 1.3
v -0.3 0.7 1.3
v -0.2 0.7 1.3
v -0.7 0.7 1.2
v -0.6 0.7 1.2
v -0.5 0.7 1.2
v -0.4 0.7 1.2
v -0.3 0.7 1.2
v -0.2 0.7 1.2
v -0.6 0.7 1.1
v -0.5 0.7 1.1
v -0.4 0.7 1.1
v -0.3 0.7 1.1
v -0.6 0.8 1.5
v -0.5 0.8 1.5
v -0.4 0.8 1.5
v -0.3 0.8 1.5
v -0.6 0.8 1.4
v -0.5 0.8 1.4
v -0.4 0.8 1.4
v -0.3 0.8 1.4
v -0.6 0.8 1.3
v -0.5 0.8 1.3
v -0.4 0.8 1.3
v -0.3 0.8 1.3
v -0.6 0.8 1.2
v -0.5 0.8 1.2
v -0.4 0.8 1.2
v -0.3 0.8 1.2
v -0.6 0.9 1.6
v -0.5 0.9 1.6
v -0.3 0.9 1.6
v -0.7 0.9 1.5
v -0.6 0.9 1.5
v -0.5 0.9 1.5
v -0.3 0.9 1.5
v -0.2 0.9 1.5
v -0.3 0.9 1.4
v -0.2 0.9 1.4
v -0.6 0.9 1.3
v -0.3 0.9 1.3
v -0.2 0.9 1.3
v -0.7 0.9 1.2
v -0.6 0.9 1.2
v -0.5 0.9 1.2
v -0.3 0.9 1.2
v -0.2 0.9 1.2
v -0.6 0.9 1.1
v -0.3 0.9 1.1
v -0.6 1 1.5
v -0.3 1 1.5
v -0.5 1 1.4
v -0.4 1 1.4
v -0.6 1 1.3
v -0.5 1 1.3
v -0.4 1 1.3
v -0.6 1 1.2
v -0.5 1 1.2
v -0.3 1 1.2
v -0.5 1.3 1.4
v -0.4 1.3 1.4
v -0.5 1.3 1.3
v -0.4 1.3 1.3

# faces
f 5/4/1 2/4/1 1/4/1
f 5/3/1 3/3/1 2/3/1
f 6/4/1 4/4/1 3/4/1
f 6/3/1 3/3/1 5/3/1
f 7/4/1 5/4/1 1/4/1
f 7/4/1 6/4/1 5/4/1
f 8/4/1 4/4/1 6/4/1
f 8/4/1 6/4/1 7/4/1
f 13/2/1 10/2/1 9/2/1
f 14/2/1 10/2/1 13/2/1
f 15/3/1 14/3/1 13/3/1
f 16/3/1 14/3/1 15/3/1
f 18/4/1 12/4/1 11/4/1
f 19/4/1 12/4/1 18/4/1
f 20/4/1 17/4/1 16/4/1
f 21/3/1 18/3/1 17/3/1
f 21/4/1 17/4/1 20/4/1
f 22/3/1 18/3/1 21/3/1
f 25/1/1 24/1/1 23/1/1
f 26/1/1 24/1/1 25/1/1
f 29/4/1 28/4/1 27/4/1
f 30/4/1 28/4/1 29/4/1
f 34/4/1 32/4/1 31/4/1
f 35/4/1 32/4/1 34/4/1
f 36/2/1 33/2/1 32/2/1
f 36/4/1 32/4/1 35/4/1
f 37/2/1 33/2/1 36/2/1
f 38/4/2 39/4/2 42/4/2
f 39/3/2 40/3/2 43/3/2
f 42/4/2 39/4/2 43/4/2
f 40/4/2 41/4/2 44/4/2
f 43/3/2 40/3/2 44/3/2
f 44/4/2 41/4/2 45/4/2
f 46/1/2 47/1/2 48/1/2
f 48/1/2 47/1/2 49/1/2
f 50/4/2 51/4/2 52/4/2
f 52/4/2 51/4/2 53/4/2
f 54/4/2 55/4/2 58/4/2
f 54/4/2 58/4/2 59/4/2
f 59/4/2 58/4/2 60/4/2
f 56/4/2 57/4/2 63/4/2
f 63/4/2 57/4/2 64/4/2
f 61/4/2 62/4/2 65/4/2
f 62/4/2 63/4/2 65/4/2
f 60/4/2 61/4/2 65/4/2
f 65/4/2 63/4/2 66/4/2
f 67/4/2 68/4/2 70/4/2
f 70/4/2 68/4/2 71/4/2
f 70/3/2 71/3/2 72/3/2
f 71/4/2 68/4/2 73/4/2
f 72/3/2 71/3/2 73/3/2
f 68/2/2 69/2/2 74/2/2
f 73/4/2 68/4/2 74/4/2
f 74/2/2 69/2/2 75/2/2
f 79/2/3 77/2/3 76/2/3
f 80/3/3 78/3/3 77/3/3
f 80/2/3 77/2/3 79/2/3
f 81/3/3 78/3/3 80/3/3
f 82/4/3 80/4/3 79/4/3
f 82/4/3 81/4/3 80/4/3
f 83/4/3 81/4/3 82/4/3
f 86/4/3 85/4/3 84/4/3
f 87/4/3 85/4/3 86/4/3
f 88/4/3 85/4/3 87/4/3
f 90/4/3 89/4/3 88/4/3
f 93/4/3 89/4/3 90/4/3
f 94/4/3 89/4/3 93/4/3
f 95/4/3 92/4/3 91/4/3
f 96/3/3 93/3/3 92/3/3
f 96/4/3 92/4/3 95/4/3
f 97/3/3 93/3/3 96/3/3
f 102/1/3 99/1/3 98/1/3
f 103/1/3 99/1/3 102/1/3
f 104/4/3 101/4/3 100/4/3
f 105/4/3 101/4/3 104/4/3
f 108/4/3 107/4/3 106/4/3
f 109/4/3 107/4/3 108/4/3
f 110/3/3 109/3/3 108/3/3
f 111/3/3 109/3/3 110/3/3
f 112/4/3 111/4/3 110/4/3
f 113/4/3 111/4/3 112/4/3
f 114/2/4 115/2/4 116/2/4
f 116/2/4 115/2/4 117/2/4
f 116/4/4 117/4/4 118/4/4
f 116/4/4 118/4/4 119/4/4
f 119/4/4 118/4/4 120/4/4
f 121/1/4 122/1/4 125/1/4
f 125/1/4 122/1/4 126/1/4
f 123/4/4 124/4/4 127/4/4
f 127/4/4 124/4/4 128/4/4
f 129/4/4 130/4/4 131/4/4
f 131/4/4 130/4/4 132/4/4
f 132/3/4 133/3/4 134/3/4
f 134/3/4 133/3/4 135/3/4
f 134/4/4 135/4/4 137/4/4
f 137/4/4 135/4/4 138/4/4
f 136/2/4 137/2/4 139/2/4
f 139/2/4 137/2/4 140/2/4
f 141/4/4 142/4/4 143/4/4
f 143/4/4 142/4/4 144/4/4
f 143/3/4 144/3/4 145/3/4
f 144/4/4 142/4/4 146/4/4
f 145/3/4 144/3/4 146/3/4
f 145/4/4 146/4/4 147/4/4
f 146/4/4 142/4/4 148/4/4
f 147/4/4 146/4/4 148/4/4
f 153/2/5 150/2/5 149/2/5
f 154/4/5 151/4/5 150/4/5
f 154/2/5 150/2/5 153/2/5
f 155/4/5 151/4/5 154/4/5
f 157/4/5 153/4/5 152/4/5
f 158/4/5 153/4/5 157/4/5
f 161/3/5 158/3/5 157/3/5
f 162/3/5 158/3/5 161/3/5
f 163/1/5 160/1/5 159/1/5
f 164/1/5 160/1/5 163/1/5
f 165/4/5 156/4/5 155/4/5
f 166/4/5 156/4/5 165/4/5
f 167/4/5 162/4/5 161/4/5
f 168/4/5 162/4/5 167/4/5
f 171/2/5 166/2/5 165/2/5
f 172/2/5 166/2/5 171/2/5
f 173/4/5 169/4/5 168/4/5
f 174/3/5 170/3/5 169/3/5
f 174/4/5 169/4/5 173/4/5
f 175/4/5 171/4/5 170/4/5
f 175/3/5 170/3/5 174/3/5
f 176/4/5 171/4/5 175/4/5
f 181/4/5 178/4/5 177/4/5
f 181/4/5 179/4/5 178/4/5
f 182/4/5 179/4/5 181/4/5
f 183/2/5 180/2/5 179/2/5
f 183/4/5 179/4/5 182/4/5
f 184/2/5 180/2/5 183/2/5
f 185/4/5 182/4/5 181/4/5
f 186/4/5 182/4/5 185/4/5
f 187/4/5 184/4/5 183/4/5
f 188/4/5 184/4/5 187/4/5
f 189/4/5 186/4/5 185/4/5
f 189/4/5 187/4/5 186/4/5
f 189/4/5 188/4/5 187/4/5
f 190/4/5 188/4/5 189/4/5
f 191/4/5 188/4/5 190/4/5
f 192/4/5 188/4/5 191/4/5
f 193/3/6 194/3/6 197/3/6
f 194/4/6 195/4/6 198/4/6
f 197/3/6 194/3/6 198/3/6
f 198/4/6 195/4/6 199/4/6
f 199/3/6 200/3/6 201/3/6
f 201/3/6 200/3/6 202/3/6
f 196/4/6 197/4/6 203/4/6
f 201/4/6 202/4/6 204/4/6
f 204/4/6 202/4/6 205/4/6
f 196/4/6 203/4/6 206/4/6
f 206/4/6 203/4/6 207/4/6
f 204/2/6 205/2/6 209/2/6
f 209/2/6 205/2/6 210/2/6
f 207/4/6 208/4/6 211/4/6
f 208/4/6 209/4/6 211/4/6
f 211/4/6 209/4/6 212/4/6
f 213/4/6 214/4/6 215/4/6
f 215/4/6 214/4/6 216/4/6
f 213/4/6 215/4/6 217/4/6
f 217/4/6 215/4/6 218/4/6
f 216/4/6 214/4/6 219/4/6
f 217/3/6 218/3/6 220/3/6
f 218/4/6 219/4/6 221/4/6
f 220/3/6 218/3/6 221/3/6
f 219/4/6 214/4/6 222/4/6
f 221/4/6 219/4/6 222/4/6
f 223/4/6 224/4/6 225/4/6
f 225/4/6 224/4/6 226/4/6
