# MagicaVoxel @ Ephtracy

# group
o 

# material
mtllib untitled.mtl
usemtl palette

# normals
vn -1 0 0
vn 1 0 0
vn 0 0 1
vn 0 0 -1
vn 0 -1 0
vn 0 1 0

# texcoords
vt 0.958984 0.5
vt 0.982422 0.5
vt 0.986328 0.5
vt 0.994141 0.5

# verts
v 0 1.2 2.5
v 0 1.2 0.9
v 0 1.4 2.5
v 0 1.4 0.9
v 1 1.4 2.5
v 1 1.4 2.4
v 1 1.4 1
v 1 1.4 0.9
v 1 1.7 2.5
v 1 1.7 2.4
v 1 1.7 1
v 1 1.7 0.9
v 1.1 1.7 2.5
v 1.1 1.7 2.4
v 1.1 1.7 1
v 1.1 1.7 0.9
v 1.1 2.1 2.5
v 1.1 2.1 2.4
v 1.1 2.1 1
v 1.1 2.1 0.9
v 1.2 2.1 2.5
v 1.2 2.1 2.4
v 1.2 2.1 1
v 1.2 2.1 0.9
v 1.2 2.4 2.5
v 1.2 2.4 2.4
v 1.2 2.4 1
v 1.2 2.4 0.9
v 1.3 1.4 2.4
v 1.3 1.4 1
v 1.3 2.3 2.4
v 1.3 2.3 1
v 1.3 2.4 2.4
v 1.3 2.4 1
v 1.5 1.2 2.5
v 1.5 1.2 0.9
v 1.5 2.4 2.5
v 1.5 2.4 0.9
v 0 1.2 2.5
v 0 1.4 2.5
v 1 1.4 2.5
v 1 1.7 2.5
v 1.1 1.7 2.5
v 1.1 2.1 2.5
v 1.2 2.1 2.5
v 1.2 2.4 2.5
v 1.5 1.2 2.5
v 1.5 2.4 2.5
v 1 1.4 1
v 1 1.7 1
v 1.1 1.7 1
v 1.1 2.1 1
v 1.2 2.1 1
v 1.2 2.4 1
v 1.3 1.4 1
v 1.3 2.3 1
v 1.3 2.4 1
v 1 1.4 2.4
v 1 1.7 2.4
v 1.1 1.7 2.4
v 1.1 2.1 2.4
v 1.2 2.1 2.4
v 1.2 2.4 2.4
v 1.3 1.4 2.4
v 1.3 2.3 2.4
v 1.3 2.4 2.4
v 0 1.2 0.9
v 0 1.4 0.9
v 1 1.4 0.9
v 1 1.7 0.9
v 1.1 1.7 0.9
v 1.1 2.1 0.9
v 1.2 2.1 0.9
v 1.2 2.4 0.9
v 1.5 1.2 0.9
v 1.5 2.4 0.9
v 0 1.2 2.5
v 1.5 1.2 2.5
v 0 1.2 0.9
v 1.5 1.2 0.9
v 0 1.4 2.5
v 1 1.4 2.5
v 0.1 1.4 2.4
v 0.2 1.4 2.4
v 1 1.4 2.4
v 1.3 1.4 2.4
v 0.2 1.4 2.3
v 0.3 1.4 2.3
v 0.5 1.4 2.3
v 0.6 1.4 2.3
v 0.7 1.4 2.3
v 0.8 1.4 2.3
v 0.1 1.4 2.2
v 0.2 1.4 2.2
v 0.3 1.4 2.2
v 0.4 1.4 2.2
v 0.5 1.4 2.2
v 0.6 1.4 2.2
v 0.1 1.4 2.1
v 0.2 1.4 2.1
v 0.3 1.4 2.1
v 0.4 1.4 2.1
v 0.5 1.4 2.1
v 0.6 1.4 2.1
v 0.1 1.4 2
v 0.2 1.4 2
v 0.3 1.4 2
v 0.4 1.4 2
v 0.5 1.4 2
v 0.6 1.4 2
v 0.3 1.4 1.9
v 0.4 1.4 1.9
v 0.5 1.4 1.9
v 0.6 1.4 1.9
v 0.3 1.4 1.8
v 0.4 1.4 1.8
v 0.5 1.4 1.8
v 0.6 1.4 1.8
v 0.3 1.4 1.7
v 0.4 1.4 1.7
v 0.5 1.4 1.7
v 0.6 1.4 1.7
v 0.3 1.4 1.6
v 0.4 1.4 1.6
v 0.5 1.4 1.6
v 0.6 1.4 1.6
v 0.3 1.4 1.5
v 0.4 1.4 1.5
v 0.5 1.4 1.5
v 0.6 1.4 1.5
v 0.1 1.4 1.4
v 0.2 1.4 1.4
v 0.3 1.4 1.4
v 0.4 1.4 1.4
v 0.5 1.4 1.4
v 0.6 1.4 1.4
v 0.1 1.4 1.3
v 0.2 1.4 1.3
v 0.3 1.4 1.3
v 0.4 1.4 1.3
v 0.5 1.4 1.3
v 0.6 1.4 1.3
v 0.1 1.4 1.2
v 0.2 1.4 1.2
v 0.3 1.4 1.2
v 0.4 1.4 1.2
v 0.5 1.4 1.2
v 0.6 1.4 1.2
v 0.1 1.4 1.1
v 0.2 1.4 1.1
v 0.3 1.4 1.1
v 0.4 1.4 1.1
v 0.5 1.4 1.1
v 0.6 1.4 1.1
v 0.1 1.4 1
v 0.2 1.4 1
v 0.3 1.4 1
v 0.4 1.4 1
v 0.5 1.4 1
v 0.6 1.4 1
v 0.7 1.4 1
v 0.8 1.4 1
v 1 1.4 1
v 1.3 1.4 1
v 0 1.4 0.9
v 1 1.4 0.9
v 1 1.7 2.5
v 1.1 1.7 2.5
v 1 1.7 2.4
v 1.1 1.7 2.4
v 1 1.7 1
v 1.1 1.7 1
v 1 1.7 0.9
v 1.1 1.7 0.9
v 1.1 2.1 2.5
v 1.2 2.1 2.5
v 1.1 2.1 2.4
v 1.2 2.1 2.4
v 1.1 2.1 1
v 1.2 2.1 1
v 1.1 2.1 0.9
v 1.2 2.1 0.9
v 1.2 2.4 2.5
v 1.5 2.4 2.5
v 1.2 2.4 2.4
v 1.3 2.4 2.4
v 1.2 2.4 1
v 1.3 2.4 1
v 1.2 2.4 0.9
v 1.5 2.4 0.9

# faces
f 3/4/1 2/4/1 1/4/1
f 4/4/1 2/4/1 3/4/1
f 9/4/1 6/4/1 5/4/1
f 10/4/1 6/4/1 9/4/1
f 11/4/1 8/4/1 7/4/1
f 12/4/1 8/4/1 11/4/1
f 17/4/1 14/4/1 13/4/1
f 18/4/1 14/4/1 17/4/1
f 19/4/1 16/4/1 15/4/1
f 20/4/1 16/4/1 19/4/1
f 25/4/1 22/4/1 21/4/1
f 26/4/1 22/4/1 25/4/1
f 27/4/1 24/4/1 23/4/1
f 28/4/1 24/4/1 27/4/1
f 31/1/1 30/1/1 29/1/1
f 32/1/1 30/1/1 31/1/1
f 33/4/1 32/4/1 31/4/1
f 34/4/1 32/4/1 33/4/1
f 35/4/2 36/4/2 37/4/2
f 37/4/2 36/4/2 38/4/2
f 41/4/3 40/4/3 39/4/3
f 43/4/3 42/4/3 41/4/3
f 45/4/3 44/4/3 43/4/3
f 47/4/3 41/4/3 39/4/3
f 47/4/3 46/4/3 45/4/3
f 47/4/3 45/4/3 43/4/3
f 47/4/3 43/4/3 41/4/3
f 48/4/3 46/4/3 47/4/3
f 51/4/3 50/4/3 49/4/3
f 53/4/3 52/4/3 51/4/3
f 55/4/3 51/4/3 49/4/3
f 55/4/3 54/4/3 53/4/3
f 55/4/3 53/4/3 51/4/3
f 56/4/3 54/4/3 55/4/3
f 57/4/3 54/4/3 56/4/3
f 58/4/4 59/4/4 60/4/4
f 60/4/4 61/4/4 62/4/4
f 58/4/4 60/4/4 64/4/4
f 62/4/4 63/4/4 64/4/4
f 60/4/4 62/4/4 64/4/4
f 64/4/4 63/4/4 65/4/4
f 65/4/4 63/4/4 66/4/4
f 67/4/4 68/4/4 69/4/4
f 69/4/4 70/4/4 71/4/4
f 71/4/4 72/4/4 73/4/4
f 67/4/4 69/4/4 75/4/4
f 73/4/4 74/4/4 75/4/4
f 71/4/4 73/4/4 75/4/4
f 69/4/4 71/4/4 75/4/4
f 75/4/4 74/4/4 76/4/4
f 79/4/5 78/4/5 77/4/5
f 80/4/5 78/4/5 79/4/5
f 81/4/6 82/4/6 83/4/6
f 83/4/6 82/4/6 84/4/6
f 84/4/6 82/4/6 85/4/6
f 83/3/6 84/3/6 87/3/6
f 85/4/6 86/4/6 87/4/6
f 84/4/6 85/4/6 87/4/6
f 87/4/6 86/4/6 88/4/6
f 88/4/6 86/4/6 89/4/6
f 89/4/6 86/4/6 90/4/6
f 90/4/6 86/4/6 91/4/6
f 91/4/6 86/4/6 92/4/6
f 81/4/6 83/4/6 93/4/6
f 83/3/6 87/3/6 93/3/6
f 87/3/6 88/3/6 93/3/6
f 93/3/6 88/3/6 94/3/6
f 88/4/6 89/4/6 95/4/6
f 94/3/6 88/3/6 95/3/6
f 95/4/6 89/4/6 96/4/6
f 89/3/6 90/3/6 97/3/6
f 96/4/6 89/4/6 97/4/6
f 90/4/6 91/4/6 98/4/6
f 97/3/6 90/3/6 98/3/6
f 93/2/6 94/2/6 99/2/6
f 81/4/6 93/4/6 99/4/6
f 95/4/6 96/4/6 100/4/6
f 99/2/6 94/2/6 100/2/6
f 94/4/6 95/4/6 100/4/6
f 100/4/6 96/4/6 101/4/6
f 96/3/6 97/3/6 102/3/6
f 101/4/6 96/4/6 102/4/6
f 97/4/6 98/4/6 103/4/6
f 102/3/6 97/3/6 103/3/6
f 98/4/6 91/4/6 104/4/6
f 103/4/6 98/4/6 104/4/6
f 100/4/6 101/4/6 105/4/6
f 81/4/6 99/4/6 105/4/6
f 99/4/6 100/4/6 105/4/6
f 105/4/6 101/4/6 106/4/6
f 101/3/6 102/3/6 107/3/6
f 106/4/6 101/4/6 107/4/6
f 102/4/6 103/4/6 108/4/6
f 107/3/6 102/3/6 108/3/6
f 103/3/6 104/3/6 109/3/6
f 108/4/6 103/4/6 109/4/6
f 104/4/6 91/4/6 110/4/6
f 109/3/6 104/3/6 110/3/6
f 106/4/6 107/4/6 111/4/6
f 107/4/6 108/4/6 111/4/6
f 108/3/6 109/3/6 112/3/6
f 111/4/6 108/4/6 112/4/6
f 109/4/6 110/4/6 113/4/6
f 112/3/6 109/3/6 113/3/6
f 110/4/6 91/4/6 114/4/6
f 113/4/6 110/4/6 114/4/6
f 106/4/6 111/4/6 115/4/6
f 111/3/6 112/3/6 115/3/6
f 112/4/6 113/4/6 116/4/6
f 115/3/6 112/3/6 116/3/6
f 113/3/6 114/3/6 117/3/6
f 116/4/6 113/4/6 117/4/6
f 114/4/6 91/4/6 118/4/6
f 117/3/6 114/3/6 118/3/6
f 106/4/6 115/4/6 119/4/6
f 115/4/6 116/4/6 119/4/6
f 116/3/6 117/3/6 120/3/6
f 119/4/6 116/4/6 120/4/6
f 117/4/6 118/4/6 121/4/6
f 120/3/6 117/3/6 121/3/6
f 118/4/6 91/4/6 122/4/6
f 121/4/6 118/4/6 122/4/6
f 106/4/6 119/4/6 123/4/6
f 119/3/6 120/3/6 123/3/6
f 120/4/6 121/4/6 124/4/6
f 123/3/6 120/3/6 124/3/6
f 121/3/6 122/3/6 125/3/6
f 124/4/6 121/4/6 125/4/6
f 122/4/6 91/4/6 126/4/6
f 125/3/6 122/3/6 126/3/6
f 106/4/6 123/4/6 127/4/6
f 123/4/6 124/4/6 127/4/6
f 124/3/6 125/3/6 128/3/6
f 127/4/6 124/4/6 128/4/6
f 125/4/6 126/4/6 129/4/6
f 128/3/6 125/3/6 129/3/6
f 126/4/6 91/4/6 130/4/6
f 129/4/6 126/4/6 130/4/6
f 105/2/6 106/2/6 131/2/6
f 81/4/6 105/4/6 131/4/6
f 106/4/6 127/4/6 132/4/6
f 131/2/6 106/2/6 132/2/6
f 127/3/6 128/3/6 133/3/6
f 132/4/6 127/4/6 133/4/6
f 128/4/6 129/4/6 134/4/6
f 133/3/6 128/3/6 134/3/6
f 129/3/6 130/3/6 135/3/6
f 134/4/6 129/4/6 135/4/6
f 130/4/6 91/4/6 136/4/6
f 135/3/6 130/3/6 136/3/6
f 81/4/6 131/4/6 137/4/6
f 132/4/6 133/4/6 137/4/6
f 131/4/6 132/4/6 137/4/6
f 133/4/6 134/4/6 137/4/6
f 137/4/6 134/4/6 138/4/6
f 138/4/6 134/4/6 139/4/6
f 134/3/6 135/3/6 140/3/6
f 139/4/6 134/4/6 140/4/6
f 135/4/6 136/4/6 141/4/6
f 140/3/6 135/3/6 141/3/6
f 136/4/6 91/4/6 142/4/6
f 141/4/6 136/4/6 142/4/6
f 81/4/6 137/4/6 143/4/6
f 137/3/6 138/3/6 143/3/6
f 138/4/6 139/4/6 144/4/6
f 143/3/6 138/3/6 144/3/6
f 139/3/6 140/3/6 145/3/6
f 144/4/6 139/4/6 145/4/6
f 140/4/6 141/4/6 146/4/6
f 145/3/6 140/3/6 146/3/6
f 141/3/6 142/3/6 147/3/6
f 146/4/6 141/4/6 147/4/6
f 142/4/6 91/4/6 148/4/6
f 147/3/6 142/3/6 148/3/6
f 144/4/6 145/4/6 149/4/6
f 143/4/6 144/4/6 149/4/6
f 81/4/6 143/4/6 149/4/6
f 145/4/6 146/4/6 149/4/6
f 149/4/6 146/4/6 150/4/6
f 150/4/6 146/4/6 151/4/6
f 146/3/6 147/3/6 152/3/6
f 151/4/6 146/4/6 152/4/6
f 147/4/6 148/4/6 153/4/6
f 152/3/6 147/3/6 153/3/6
f 148/4/6 91/4/6 154/4/6
f 153/4/6 148/4/6 154/4/6
f 81/4/6 149/4/6 155/4/6
f 149/3/6 150/3/6 155/3/6
f 150/4/6 151/4/6 156/4/6
f 155/3/6 150/3/6 156/3/6
f 151/3/6 152/3/6 157/3/6
f 156/4/6 151/4/6 157/4/6
f 152/4/6 153/4/6 158/4/6
f 157/3/6 152/3/6 158/3/6
f 153/3/6 154/3/6 159/3/6
f 158/4/6 153/4/6 159/4/6
f 154/4/6 91/4/6 160/4/6
f 159/3/6 154/3/6 160/3/6
f 91/3/6 92/3/6 161/3/6
f 160/4/6 91/4/6 161/4/6
f 92/4/6 86/4/6 162/4/6
f 161/3/6 92/3/6 162/3/6
f 162/4/6 86/4/6 163/4/6
f 163/4/6 86/4/6 164/4/6
f 160/4/6 161/4/6 165/4/6
f 159/4/6 160/4/6 165/4/6
f 162/4/6 163/4/6 165/4/6
f 161/4/6 162/4/6 165/4/6
f 157/4/6 158/4/6 165/4/6
f 158/4/6 159/4/6 165/4/6
f 81/4/6 155/4/6 165/4/6
f 155/4/6 156/4/6 165/4/6
f 156/4/6 157/4/6 165/4/6
f 165/4/6 163/4/6 166/4/6
f 167/4/6 168/4/6 169/4/6
f 169/4/6 168/4/6 170/4/6
f 171/4/6 172/4/6 173/4/6
f 173/4/6 172/4/6 174/4/6
f 175/4/6 176/4/6 177/4/6
f 177/4/6 176/4/6 178/4/6
f 179/4/6 180/4/6 181/4/6
f 181/4/6 180/4/6 182/4/6
f 183/4/6 184/4/6 185/4/6
f 185/4/6 184/4/6 186/4/6
f 186/4/6 184/4/6 188/4/6
f 187/4/6 188/4/6 189/4/6
f 188/4/6 184/4/6 190/4/6
f 189/4/6 188/4/6 190/4/6
