# MagicaVoxel @ Ephtracy

# group
o 

# material
mtllib Table2-4.mtl
usemtl palette

# normals
vn -1 0 0
vn 1 0 0
vn 0 0 1
vn 0 0 -1
vn 0 -1 0
vn 0 1 0

# texcoords
vt 0.568359 0.5
vt 0.630859 0.5
vt 0.634766 0.5
vt 0.888672 0.5
vt 0.939453 0.5
vt 0.943359 0.5
vt 0.951172 0.5
vt 0.955078 0.5
vt 0.974609 0.5
vt 0.978516 0.5
vt 0.982422 0.5
vt 0.986328 0.5

# verts
v -1.7 5.3 6.2
v -1.7 5.3 5.2
v -1.7 5.4 6.2
v -1.7 5.4 5.3
v -1.7 5.5 6.2
v -1.7 5.5 5.4
v -1.7 5.5 5.3
v -1.7 5.5 5.2
v -1.7 5.6 6.2
v -1.7 5.6 5.4
v -1.7 5.6 5.3
v -1.7 5.6 5.2
v 0.3 5.3 5.3
v 0.3 5.3 5.2
v 0.3 5.4 5.3
v 0.3 5.4 5.2
v 0.4 5.3 6.1
v 0.4 5.3 5.6
v 0.4 5.3 5.4
v 0.4 5.3 5.3
v 0.4 5.4 6.1
v 0.4 5.4 5.6
v 0.4 5.4 5.4
v 0.4 5.4 5.3
v 0.5 5.3 6.2
v 0.5 5.3 6.1
v 0.5 5.3 5.6
v 0.5 5.3 5.4
v 0.5 5.4 6.2
v 0.5 5.4 6.1
v 0.5 5.4 5.8
v 0.5 5.4 5.6
v 0.5 5.4 5.4
v 0.5 5.5 5.8
v 0.5 5.5 5.6
v 0.6 5.3 5.4
v 0.6 5.3 5.3
v 0.6 5.4 5.4
v 0.6 5.4 5.3
v 0.2 5.3 6.2
v 0.2 5.3 5.2
v 0.2 5.4 6.2
v 0.2 5.4 5.2
v 0.2 5.5 6.2
v 0.2 5.5 5.2
v 0.2 5.6 6.2
v 0.2 5.6 5.2
v 0.5 5.3 5.4
v 0.5 5.3 5.3
v 0.5 5.4 5.4
v 0.5 5.4 5.3
v 0.6 5.3 6.2
v 0.6 5.3 6.1
v 0.6 5.3 5.6
v 0.6 5.3 5.4
v 0.6 5.4 6.2
v 0.6 5.4 6.1
v 0.6 5.4 5.8
v 0.6 5.4 5.6
v 0.6 5.4 5.4
v 0.6 5.5 5.8
v 0.6 5.5 5.6
v 0.7 5.3 6.1
v 0.7 5.3 5.6
v 0.7 5.3 5.4
v 0.7 5.3 5.3
v 0.7 5.4 6.1
v 0.7 5.4 5.6
v 0.7 5.4 5.4
v 0.7 5.4 5.3
v 0.8 5.3 5.3
v 0.8 5.3 5.2
v 0.8 5.4 5.3
v 0.8 5.4 5.2
v -1.7 5.3 6.2
v -1.7 5.4 6.2
v -1.7 5.5 6.2
v -1.7 5.6 6.2
v -1.4 5.5 6.2
v -1.4 5.6 6.2
v -1.3 5.5 6.2
v -1.3 5.6 6.2
v -1.1 5.3 6.2
v -1.1 5.4 6.2
v -1.1 5.5 6.2
v -1.1 5.6 6.2
v -0.8 5.5 6.2
v -0.8 5.6 6.2
v -0.7 5.5 6.2
v -0.7 5.6 6.2
v -0.4 5.3 6.2
v -0.4 5.4 6.2
v -0.4 5.5 6.2
v -0.4 5.6 6.2
v -0.2 5.5 6.2
v -0.2 5.6 6.2
v 0 5.5 6.2
v 0 5.6 6.2
v 0.0999999 5.3 6.2
v 0.0999999 5.4 6.2
v 0.2 5.3 6.2
v 0.2 5.4 6.2
v 0.2 5.5 6.2
v 0.2 5.6 6.2
v 0.5 5.3 6.2
v 0.5 5.4 6.2
v 0.6 5.3 6.2
v 0.6 5.4 6.2
v 0.4 5.3 6.1
v 0.4 5.4 6.1
v 0.5 5.3 6.1
v 0.5 5.4 6.1
v 0.6 5.3 6.1
v 0.6 5.4 6.1
v 0.7 5.3 6.1
v 0.7 5.4 6.1
v 0.5 5.4 5.8
v 0.5 5.5 5.8
v 0.6 5.4 5.8
v 0.6 5.5 5.8
v 0.4 5.3 5.4
v 0.4 5.4 5.4
v 0.5 5.3 5.4
v 0.5 5.4 5.4
v 0.6 5.3 5.4
v 0.6 5.4 5.4
v 0.7 5.3 5.4
v 0.7 5.4 5.4
v 0.3 5.3 5.3
v 0.3 5.4 5.3
v 0.4 5.3 5.3
v 0.4 5.4 5.3
v 0.5 5.3 5.3
v 0.5 5.4 5.3
v 0.6 5.3 5.3
v 0.6 5.4 5.3
v 0.7 5.3 5.3
v 0.7 5.4 5.3
v 0.8 5.3 5.3
v 0.8 5.4 5.3
v 0.4 5.3 5.6
v 0.4 5.4 5.6
v 0.5 5.3 5.6
v 0.5 5.4 5.6
v 0.5 5.5 5.6
v 0.6 5.3 5.6
v 0.6 5.4 5.6
v 0.6 5.5 5.6
v 0.7 5.3 5.6
v 0.7 5.4 5.6
v 0.5 5.3 5.4
v 0.5 5.4 5.4
v 0.6 5.3 5.4
v 0.6 5.4 5.4
v -1.7 5.3 5.2
v -1.7 5.5 5.2
v -1.7 5.6 5.2
v -1.2 5.4 5.2
v -1.2 5.5 5.2
v -1.1 5.3 5.2
v -1.1 5.4 5.2
v -1.1 5.5 5.2
v -1.1 5.6 5.2
v -0.4 5.3 5.2
v -0.4 5.4 5.2
v -0.4 5.5 5.2
v -0.4 5.6 5.2
v -0.3 5.5 5.2
v -0.3 5.6 5.2
v -0.2 5.5 5.2
v -0.2 5.6 5.2
v 0 5.5 5.2
v 0 5.6 5.2
v 0.0999999 5.3 5.2
v 0.0999999 5.4 5.2
v 0.0999999 5.5 5.2
v 0.0999999 5.6 5.2
v 0.2 5.3 5.2
v 0.2 5.4 5.2
v 0.2 5.5 5.2
v 0.2 5.6 5.2
v 0.3 5.3 5.2
v 0.3 5.4 5.2
v 0.5 5.3 5.2
v 0.5 5.4 5.2
v 0.6 5.3 5.2
v 0.6 5.4 5.2
v 0.8 5.3 5.2
v 0.8 5.4 5.2
v -1.7 5.3 6.2
v -1.1 5.3 6.2
v -0.4 5.3 6.2
v 0.0999999 5.3 6.2
v 0.2 5.3 6.2
v 0.5 5.3 6.2
v 0.6 5.3 6.2
v 0.4 5.3 6.1
v 0.5 5.3 6.1
v 0.6 5.3 6.1
v 0.7 5.3 6.1
v 0.5 5.3 5.8
v 0.6 5.3 5.8
v 0.4 5.3 5.6
v 0.5 5.3 5.6
v 0.6 5.3 5.6
v 0.7 5.3 5.6
v 0.4 5.3 5.4
v 0.5 5.3 5.4
v 0.6 5.3 5.4
v 0.7 5.3 5.4
v 0.3 5.3 5.3
v 0.4 5.3 5.3
v 0.5 5.3 5.3
v 0.6 5.3 5.3
v 0.7 5.3 5.3
v 0.8 5.3 5.3
v -1.7 5.3 5.2
v -1.1 5.3 5.2
v -0.4 5.3 5.2
v 0.0999999 5.3 5.2
v 0.2 5.3 5.2
v 0.3 5.3 5.2
v 0.5 5.3 5.2
v 0.6 5.3 5.2
v 0.8 5.3 5.2
v 0.5 5.4 6.2
v 0.6 5.4 6.2
v 0.4 5.4 6.1
v 0.5 5.4 6.1
v 0.6 5.4 6.1
v 0.7 5.4 6.1
v 0.5 5.4 5.8
v 0.6 5.4 5.8
v 0.4 5.4 5.6
v 0.5 5.4 5.6
v 0.6 5.4 5.6
v 0.7 5.4 5.6
v 0.4 5.4 5.4
v 0.5 5.4 5.4
v 0.6 5.4 5.4
v 0.7 5.4 5.4
v 0.3 5.4 5.3
v 0.4 5.4 5.3
v 0.5 5.4 5.3
v 0.6 5.4 5.3
v 0.7 5.4 5.3
v 0.8 5.4 5.3
v 0.3 5.4 5.2
v 0.5 5.4 5.2
v 0.6 5.4 5.2
v 0.8 5.4 5.2
v 0.5 5.5 5.8
v 0.6 5.5 5.8
v 0.5 5.5 5.6
v 0.6 5.5 5.6
v -1.7 5.6 6.2
v -1.4 5.6 6.2
v -1.3 5.6 6.2
v -1.1 5.6 6.2
v -0.8 5.6 6.2
v -0.7 5.6 6.2
v -0.4 5.6 6.2
v -0.2 5.6 6.2
v 0 5.6 6.2
v 0.2 5.6 6.2
v -1.5 5.6 5.6
v -1.4 5.6 5.6
v -1.3 5.6 5.6
v -1.2 5.6 5.6
v -0.9 5.6 5.6
v -0.8 5.6 5.6
v -0.7 5.6 5.6
v -0.6 5.6 5.6
v -1.6 5.6 5.5
v -1.5 5.6 5.5
v -1.2 5.6 5.5
v -1.1 5.6 5.5
v -1 5.6 5.5
v -0.9 5.6 5.5
v -0.8 5.6 5.5
v -0.7 5.6 5.5
v -0.6 5.6 5.5
v -0.5 5.6 5.5
v -1.7 5.6 5.4
v -1.6 5.6 5.4
v -1.5 5.6 5.4
v -1.2 5.6 5.4
v -1.1 5.6 5.4
v -1 5.6 5.4
v -0.9 5.6 5.4
v -0.6 5.6 5.4
v -0.5 5.6 5.4
v -0.4 5.6 5.4
v -0.3 5.6 5.4
v -0.2 5.6 5.4
v 0 5.6 5.4
v 0.0999999 5.6 5.4
v -1.7 5.6 5.3
v -1.6 5.6 5.3
v -1.1 5.6 5.3
v -1 5.6 5.3
v -0.5 5.6 5.3
v -0.4 5.6 5.3
v -1.7 5.6 5.2
v -1.1 5.6 5.2
v -0.4 5.6 5.2
v -0.3 5.6 5.2
v -0.2 5.6 5.2
v 0 5.6 5.2
v 0.0999999 5.6 5.2
v 0.2 5.6 5.2

# faces
f 3/9/1 2/9/1 1/9/1
f 4/9/1 2/9/1 3/9/1
f 5/6/1 4/6/1 3/6/1
f 6/6/1 4/6/1 5/6/1
f 7/9/1 2/9/1 4/9/1
f 7/6/1 4/6/1 6/6/1
f 8/9/1 2/9/1 7/9/1
f 9/12/1 6/12/1 5/12/1
f 10/8/1 7/8/1 6/8/1
f 10/12/1 6/12/1 9/12/1
f 11/12/1 8/12/1 7/12/1
f 11/8/1 7/8/1 10/8/1
f 12/12/1 8/12/1 11/12/1
f 15/11/1 14/11/1 13/11/1
f 16/11/1 14/11/1 15/11/1
f 21/11/1 18/11/1 17/11/1
f 22/11/1 18/11/1 21/11/1
f 23/11/1 20/11/1 19/11/1
f 24/11/1 20/11/1 23/11/1
f 29/11/1 26/11/1 25/11/1
f 30/11/1 26/11/1 29/11/1
f 32/11/1 28/11/1 27/11/1
f 33/11/1 28/11/1 32/11/1
f 34/7/1 32/7/1 31/7/1
f 35/7/1 32/7/1 34/7/1
f 38/11/1 37/11/1 36/11/1
f 39/11/1 37/11/1 38/11/1
f 40/2/2 41/2/2 42/2/2
f 42/2/2 41/2/2 43/2/2
f 42/3/2 43/3/2 44/3/2
f 44/3/2 43/3/2 45/3/2
f 44/10/2 45/10/2 46/10/2
f 46/10/2 45/10/2 47/10/2
f 48/11/2 49/11/2 50/11/2
f 50/11/2 49/11/2 51/11/2
f 52/11/2 53/11/2 56/11/2
f 56/11/2 53/11/2 57/11/2
f 54/11/2 55/11/2 59/11/2
f 59/11/2 55/11/2 60/11/2
f 58/7/2 59/7/2 61/7/2
f 61/7/2 59/7/2 62/7/2
f 63/11/2 64/11/2 67/11/2
f 67/11/2 64/11/2 68/11/2
f 65/11/2 66/11/2 69/11/2
f 69/11/2 66/11/2 70/11/2
f 71/11/2 72/11/2 73/11/2
f 73/11/2 72/11/2 74/11/2
f 79/6/3 77/6/3 76/6/3
f 79/12/3 78/12/3 77/12/3
f 80/12/3 78/12/3 79/12/3
f 81/6/3 79/6/3 76/6/3
f 81/8/3 80/8/3 79/8/3
f 82/8/3 80/8/3 81/8/3
f 83/9/3 76/9/3 75/9/3
f 84/6/3 81/6/3 76/6/3
f 84/9/3 76/9/3 83/9/3
f 85/12/3 82/12/3 81/12/3
f 85/6/3 81/6/3 84/6/3
f 86/12/3 82/12/3 85/12/3
f 87/7/3 85/7/3 84/7/3
f 87/4/3 86/4/3 85/4/3
f 88/4/3 86/4/3 87/4/3
f 89/7/3 87/7/3 84/7/3
f 89/1/3 88/1/3 87/1/3
f 90/1/3 88/1/3 89/1/3
f 91/11/3 84/11/3 83/11/3
f 92/7/3 89/7/3 84/7/3
f 92/11/3 84/11/3 91/11/3
f 93/4/3 90/4/3 89/4/3
f 93/7/3 89/7/3 92/7/3
f 94/4/3 90/4/3 93/4/3
f 95/3/3 92/3/3 91/3/3
f 95/3/3 93/3/3 92/3/3
f 95/10/3 94/10/3 93/10/3
f 96/10/3 94/10/3 95/10/3
f 97/3/3 95/3/3 91/3/3
f 97/5/3 96/5/3 95/5/3
f 98/5/3 96/5/3 97/5/3
f 99/3/3 97/3/3 91/3/3
f 100/3/3 97/3/3 99/3/3
f 101/2/3 100/2/3 99/2/3
f 102/3/3 97/3/3 100/3/3
f 102/2/3 100/2/3 101/2/3
f 103/10/3 98/10/3 97/10/3
f 103/3/3 97/3/3 102/3/3
f 104/10/3 98/10/3 103/10/3
f 107/11/3 106/11/3 105/11/3
f 108/11/3 106/11/3 107/11/3
f 111/11/3 110/11/3 109/11/3
f 112/11/3 110/11/3 111/11/3
f 115/11/3 114/11/3 113/11/3
f 116/11/3 114/11/3 115/11/3
f 119/7/3 118/7/3 117/7/3
f 120/7/3 118/7/3 119/7/3
f 123/11/3 122/11/3 121/11/3
f 124/11/3 122/11/3 123/11/3
f 127/11/3 126/11/3 125/11/3
f 128/11/3 126/11/3 127/11/3
f 131/11/3 130/11/3 129/11/3
f 132/11/3 130/11/3 131/11/3
f 135/7/3 134/7/3 133/7/3
f 136/7/3 134/7/3 135/7/3
f 139/11/3 138/11/3 137/11/3
f 140/11/3 138/11/3 139/11/3
f 141/11/4 142/11/4 143/11/4
f 143/11/4 142/11/4 144/11/4
f 144/7/4 145/7/4 147/7/4
f 147/7/4 145/7/4 148/7/4
f 146/11/4 147/11/4 149/11/4
f 149/11/4 147/11/4 150/11/4
f 151/11/4 152/11/4 153/11/4
f 153/11/4 152/11/4 154/11/4
f 155/9/4 156/9/4 158/9/4
f 156/12/4 157/12/4 159/12/4
f 158/9/4 156/9/4 159/9/4
f 155/9/4 158/9/4 160/9/4
f 158/6/4 159/6/4 161/6/4
f 160/9/4 158/9/4 161/9/4
f 159/12/4 157/12/4 162/12/4
f 161/6/4 159/6/4 162/6/4
f 162/12/4 157/12/4 163/12/4
f 160/11/4 161/11/4 164/11/4
f 161/7/4 162/7/4 165/7/4
f 164/11/4 161/11/4 165/11/4
f 162/4/4 163/4/4 166/4/4
f 165/7/4 162/7/4 166/7/4
f 166/4/4 163/4/4 167/4/4
f 164/3/4 165/3/4 168/3/4
f 165/3/4 166/3/4 168/3/4
f 166/10/4 167/10/4 168/10/4
f 168/10/4 167/10/4 169/10/4
f 164/3/4 168/3/4 170/3/4
f 168/5/4 169/5/4 170/5/4
f 170/5/4 169/5/4 171/5/4
f 164/3/4 170/3/4 172/3/4
f 170/10/4 171/10/4 172/10/4
f 172/10/4 171/10/4 173/10/4
f 164/3/4 172/3/4 174/3/4
f 174/3/4 172/3/4 175/3/4
f 172/5/4 173/5/4 176/5/4
f 175/3/4 172/3/4 176/3/4
f 176/5/4 173/5/4 177/5/4
f 174/2/4 175/2/4 178/2/4
f 175/3/4 176/3/4 179/3/4
f 178/2/4 175/2/4 179/2/4
f 176/10/4 177/10/4 180/10/4
f 179/3/4 176/3/4 180/3/4
f 180/10/4 177/10/4 181/10/4
f 182/11/4 183/11/4 184/11/4
f 184/11/4 183/11/4 185/11/4
f 184/7/4 185/7/4 186/7/4
f 186/7/4 185/7/4 187/7/4
f 186/11/4 187/11/4 188/11/4
f 188/11/4 187/11/4 189/11/4
f 198/11/5 196/11/5 195/11/5
f 199/11/5 196/11/5 198/11/5
f 201/11/5 198/11/5 197/11/5
f 201/7/5 199/7/5 198/7/5
f 202/11/5 200/11/5 199/11/5
f 202/7/5 199/7/5 201/7/5
f 203/11/5 201/11/5 197/11/5
f 204/9/5 202/9/5 201/9/5
f 204/11/5 201/11/5 203/11/5
f 205/11/5 200/11/5 202/11/5
f 205/9/5 202/9/5 204/9/5
f 206/11/5 200/11/5 205/11/5
f 208/11/5 205/11/5 204/11/5
f 209/11/5 205/11/5 208/11/5
f 212/11/5 208/11/5 207/11/5
f 213/11/5 208/11/5 212/11/5
f 214/11/5 210/11/5 209/11/5
f 215/11/5 210/11/5 214/11/5
f 217/9/5 191/9/5 190/9/5
f 218/11/5 192/11/5 191/11/5
f 218/9/5 191/9/5 217/9/5
f 219/3/5 193/3/5 192/3/5
f 219/11/5 192/11/5 218/11/5
f 220/2/5 194/2/5 193/2/5
f 220/3/5 193/3/5 219/3/5
f 221/2/5 194/2/5 220/2/5
f 222/11/5 213/11/5 212/11/5
f 222/11/5 212/11/5 211/11/5
f 223/7/5 214/7/5 213/7/5
f 223/11/5 213/11/5 222/11/5
f 224/11/5 216/11/5 215/11/5
f 224/7/5 214/7/5 223/7/5
f 224/11/5 215/11/5 214/11/5
f 225/11/5 216/11/5 224/11/5
f 226/11/6 227/11/6 229/11/6
f 229/11/6 227/11/6 230/11/6
f 228/11/6 229/11/6 232/11/6
f 229/7/6 230/7/6 232/7/6
f 230/11/6 231/11/6 233/11/6
f 232/7/6 230/7/6 233/7/6
f 228/11/6 232/11/6 234/11/6
f 234/11/6 232/11/6 235/11/6
f 233/11/6 231/11/6 236/11/6
f 236/11/6 231/11/6 237/11/6
f 235/11/6 236/11/6 239/11/6
f 239/11/6 236/11/6 240/11/6
f 238/11/6 239/11/6 243/11/6
f 243/11/6 239/11/6 244/11/6
f 240/11/6 241/11/6 245/11/6
f 245/11/6 241/11/6 246/11/6
f 243/11/6 244/11/6 248/11/6
f 242/11/6 243/11/6 248/11/6
f 244/7/6 245/7/6 249/7/6
f 248/11/6 244/11/6 249/11/6
f 245/11/6 246/11/6 250/11/6
f 249/7/6 245/7/6 250/7/6
f 246/11/6 247/11/6 250/11/6
f 250/11/6 247/11/6 251/11/6
f 252/7/6 253/7/6 254/7/6
f 254/7/6 253/7/6 255/7/6
f 256/12/6 257/12/6 266/12/6
f 257/8/6 258/8/6 267/8/6
f 266/12/6 257/12/6 267/12/6
f 258/12/6 259/12/6 268/12/6
f 267/8/6 258/8/6 268/8/6
f 268/12/6 259/12/6 269/12/6
f 259/4/6 260/4/6 270/4/6
f 260/1/6 261/1/6 271/1/6
f 270/4/6 260/4/6 271/4/6
f 261/4/6 262/4/6 272/4/6
f 271/1/6 261/1/6 272/1/6
f 272/4/6 262/4/6 273/4/6
f 256/12/6 266/12/6 274/12/6
f 266/8/6 267/8/6 275/8/6
f 274/12/6 266/12/6 275/12/6
f 267/8/6 268/8/6 275/8/6
f 268/8/6 269/8/6 275/8/6
f 269/12/6 259/12/6 276/12/6
f 275/8/6 269/8/6 276/8/6
f 259/4/6 270/4/6 277/4/6
f 276/12/6 259/12/6 277/12/6
f 277/4/6 270/4/6 278/4/6
f 270/1/6 271/1/6 279/1/6
f 278/4/6 270/4/6 279/4/6
f 271/4/6 272/4/6 280/4/6
f 279/1/6 271/1/6 280/1/6
f 272/1/6 273/1/6 281/1/6
f 280/4/6 272/4/6 281/4/6
f 273/4/6 262/4/6 282/4/6
f 281/1/6 273/1/6 282/1/6
f 282/4/6 262/4/6 283/4/6
f 256/12/6 274/12/6 284/12/6
f 274/8/6 275/8/6 285/8/6
f 284/12/6 274/12/6 285/12/6
f 275/12/6 276/12/6 286/12/6
f 285/8/6 275/8/6 286/8/6
f 276/8/6 277/8/6 287/8/6
f 286/12/6 276/12/6 287/12/6
f 277/4/6 278/4/6 288/4/6
f 287/8/6 277/8/6 288/8/6
f 278/1/6 279/1/6 289/1/6
f 288/4/6 278/4/6 289/4/6
f 280/4/6 281/4/6 290/4/6
f 289/1/6 279/1/6 290/1/6
f 279/4/6 280/4/6 290/4/6
f 281/4/6 282/4/6 290/4/6
f 282/1/6 283/1/6 291/1/6
f 290/4/6 282/4/6 291/4/6
f 283/4/6 262/4/6 292/4/6
f 291/1/6 283/1/6 292/1/6
f 262/10/6 263/10/6 293/10/6
f 292/4/6 262/4/6 293/4/6
f 293/10/6 263/10/6 294/10/6
f 263/5/6 264/5/6 295/5/6
f 294/10/6 263/10/6 295/10/6
f 264/10/6 265/10/6 296/10/6
f 295/5/6 264/5/6 296/5/6
f 296/10/6 265/10/6 297/10/6
f 284/8/6 285/8/6 298/8/6
f 286/12/6 287/12/6 299/12/6
f 298/8/6 285/8/6 299/8/6
f 287/12/6 288/12/6 299/12/6
f 285/12/6 286/12/6 299/12/6
f 288/1/6 289/1/6 300/1/6
f 299/12/6 288/12/6 300/12/6
f 290/4/6 291/4/6 301/4/6
f 300/1/6 289/1/6 301/1/6
f 291/4/6 292/4/6 301/4/6
f 289/4/6 290/4/6 301/4/6
f 292/1/6 293/1/6 302/1/6
f 301/4/6 292/4/6 302/4/6
f 293/10/6 294/10/6 303/10/6
f 302/1/6 293/1/6 303/1/6
f 298/12/6 299/12/6 304/12/6
f 299/12/6 300/12/6 304/12/6
f 302/4/6 303/4/6 305/4/6
f 304/12/6 300/12/6 305/12/6
f 300/4/6 301/4/6 305/4/6
f 301/4/6 302/4/6 305/4/6
f 303/10/6 294/10/6 306/10/6
f 305/4/6 303/4/6 306/4/6
f 294/5/6 295/5/6 307/5/6
f 306/10/6 294/10/6 307/10/6
f 295/10/6 296/10/6 308/10/6
f 307/5/6 295/5/6 308/5/6
f 296/5/6 297/5/6 309/5/6
f 308/10/6 296/10/6 309/10/6
f 297/10/6 265/10/6 310/10/6
f 309/5/6 297/5/6 310/5/6
f 310/10/6 265/10/6 311/10/6
