# MagicaVoxel @ Ephtracy

# group
o 

# material
mtllib Table2-0.mtl
usemtl palette

# normals
vn -1 0 0
vn 1 0 0
vn 0 0 1
vn 0 0 -1
vn 0 -1 0
vn 0 1 0

# texcoords
vt 0.884766 0.5
vt 0.888672 0.5
vt 0.892578 0.5
vt 0.943359 0.5
vt 0.978516 0.5
vt 0.982422 0.5

# verts
v -1.3 -0.2 0.5
v -1.3 -0.2 -0.5
v -1.3 -0.1 0.5
v -1.3 -0.1 -0.5
v -1.3 0 0.5
v -1.3 0 -0.4
v -1.3 0.1 0.5
v -1.3 0.1 -0.4
v -1.3 0.1 -0.5
v 1.3 -0.2 0.5
v 1.3 -0.2 -0.5
v 1.3 -0.1 0.5
v 1.3 -0.1 -0.5
v 1.3 0 0.5
v 1.3 0 -0.5
v 1.3 0.1 0.5
v 1.3 0.1 -0.5
v -1.3 -0.2 0.5
v -1.3 -0.1 0.5
v -1.3 0 0.5
v -1.3 0.1 0.5
v -1 0 0.5
v -1 0.1 0.5
v -0.8 0 0.5
v -0.8 0.1 0.5
v -0.5 -0.2 0.5
v -0.5 -0.1 0.5
v -0.5 0 0.5
v -0.5 0.1 0.5
v -0.4 0 0.5
v -0.4 0.1 0.5
v 0.3 0 0.5
v 0.3 0.1 0.5
v 0.4 -0.2 0.5
v 0.4 -0.1 0.5
v 0.4 0 0.5
v 0.4 0.1 0.5
v 0.8 0 0.5
v 0.8 0.1 0.5
v 0.9 0 0.5
v 0.9 0.1 0.5
v 1.3 -0.2 0.5
v 1.3 -0.1 0.5
v 1.3 0 0.5
v 1.3 0.1 0.5
v -1.3 -0.2 -0.5
v -1.3 -0.1 -0.5
v -1.3 0.1 -0.5
v -1.2 0 -0.5
v -1.2 0.1 -0.5
v -0.6 0 -0.5
v -0.6 0.1 -0.5
v -0.5 -0.2 -0.5
v -0.5 -0.1 -0.5
v -0.5 0.1 -0.5
v -0.3 0 -0.5
v -0.3 0.1 -0.5
v 0.2 0 -0.5
v 0.2 0.1 -0.5
v 0.4 -0.2 -0.5
v 0.4 -0.1 -0.5
v 0.4 0.1 -0.5
v 0.8 0 -0.5
v 0.8 0.1 -0.5
v 0.9 0 -0.5
v 0.9 0.1 -0.5
v 1.2 -0.1 -0.5
v 1.2 0 -0.5
v 1.3 -0.2 -0.5
v 1.3 -0.1 -0.5
v 1.3 0 -0.5
v 1.3 0.1 -0.5
v -1.3 -0.2 0.5
v -0.5 -0.2 0.5
v 0.4 -0.2 0.5
v 1.3 -0.2 0.5
v -1.3 -0.2 -0.5
v -0.5 -0.2 -0.5
v 0.4 -0.2 -0.5
v 1.3 -0.2 -0.5
v -1.3 0.1 0.5
v -1 0.1 0.5
v -0.8 0.1 0.5
v -0.5 0.1 0.5
v -0.4 0.1 0.5
v 0.3 0.1 0.5
v 0.4 0.1 0.5
v 0.8 0.1 0.5
v 0.9 0.1 0.5
v 1.3 0.1 0.5
v -0.5 0.1 0.4
v -0.4 0.1 0.4
v -0.3 0.1 0.4
v 0.2 0.1 0.4
v 0.3 0.1 0.4
v 0.4 0.1 0.4
v -0.4 0.1 0.3
v -0.3 0.1 0.3
v -0.2 0.1 0.3
v 0.0999999 0.1 0.3
v 0.2 0.1 0.3
v 0.3 0.1 0.3
v -0.3 0.1 0.2
v -0.2 0.1 0.2
v -0.1 0.1 0.2
v -1.19209e-07 0.1 0.2
v 0.0999999 0.1 0.2
v 0.2 0.1 0.2
v -0.2 0.1 0.1
v -0.1 0.1 0.1
v -1.19209e-07 0.1 0.1
v 0.0999999 0.1 0.1
v -1.1 0.1 -0.1
v -1 0.1 -0.1
v -0.8 0.1 -0.1
v -0.7 0.1 -0.1
v -0.2 0.1 -0.2
v -0.1 0.1 -0.2
v -1.19209e-07 0.1 -0.2
v 0.0999999 0.1 -0.2
v -1.2 0.1 -0.3
v -1.1 0.1 -0.3
v -1 0.1 -0.3
v -0.8 0.1 -0.3
v -0.7 0.1 -0.3
v -0.6 0.1 -0.3
v -0.3 0.1 -0.3
v -0.2 0.1 -0.3
v -0.1 0.1 -0.3
v -1.19209e-07 0.1 -0.3
v 0.0999999 0.1 -0.3
v 0.2 0.1 -0.3
v -1.3 0.1 -0.4
v -1.2 0.1 -0.4
v -1.1 0.1 -0.4
v -0.7 0.1 -0.4
v -0.6 0.1 -0.4
v -0.5 0.1 -0.4
v -0.3 0.1 -0.4
v -0.2 0.1 -0.4
v 0.0999999 0.1 -0.4
v 0.2 0.1 -0.4
v 0.4 0.1 -0.4
v -1.3 0.1 -0.5
v -1.2 0.1 -0.5
v -0.6 0.1 -0.5
v -0.5 0.1 -0.5
v -0.3 0.1 -0.5
v 0.2 0.1 -0.5
v 0.4 0.1 -0.5
v 0.8 0.1 -0.5
v 0.9 0.1 -0.5
v 1.3 0.1 -0.5

# faces
f 3/1/1 2/1/1 1/1/1
f 4/1/1 2/1/1 3/1/1
f 5/5/1 4/5/1 3/5/1
f 6/5/1 4/5/1 5/5/1
f 7/1/1 6/1/1 5/1/1
f 8/5/1 4/5/1 6/5/1
f 8/1/1 6/1/1 7/1/1
f 9/5/1 4/5/1 8/5/1
f 10/3/2 11/3/2 12/3/2
f 12/3/2 11/3/2 13/3/2
f 12/4/2 13/4/2 14/4/2
f 14/4/2 13/4/2 15/4/2
f 14/3/2 15/3/2 16/3/2
f 16/3/2 15/3/2 17/3/2
f 22/5/3 20/5/3 19/5/3
f 22/1/3 21/1/3 20/1/3
f 23/1/3 21/1/3 22/1/3
f 24/5/3 22/5/3 19/5/3
f 24/5/3 23/5/3 22/5/3
f 25/5/3 23/5/3 24/5/3
f 26/1/3 19/1/3 18/1/3
f 27/5/3 24/5/3 19/5/3
f 27/1/3 19/1/3 26/1/3
f 28/1/3 25/1/3 24/1/3
f 28/5/3 24/5/3 27/5/3
f 29/1/3 25/1/3 28/1/3
f 30/6/3 28/6/3 27/6/3
f 30/6/3 29/6/3 28/6/3
f 31/6/3 29/6/3 30/6/3
f 32/6/3 30/6/3 27/6/3
f 32/2/3 31/2/3 30/2/3
f 33/2/3 31/2/3 32/2/3
f 34/2/3 27/2/3 26/2/3
f 35/6/3 32/6/3 27/6/3
f 35/2/3 27/2/3 34/2/3
f 35/6/3 33/6/3 32/6/3
f 36/6/3 33/6/3 35/6/3
f 37/6/3 33/6/3 36/6/3
f 38/4/3 36/4/3 35/4/3
f 38/3/3 37/3/3 36/3/3
f 39/3/3 37/3/3 38/3/3
f 40/4/3 38/4/3 35/4/3
f 40/4/3 39/4/3 38/4/3
f 41/4/3 39/4/3 40/4/3
f 42/3/3 35/3/3 34/3/3
f 43/4/3 40/4/3 35/4/3
f 43/3/3 35/3/3 42/3/3
f 44/3/3 41/3/3 40/3/3
f 44/4/3 40/4/3 43/4/3
f 45/3/3 41/3/3 44/3/3
f 47/5/4 48/5/4 49/5/4
f 49/5/4 48/5/4 50/5/4
f 47/5/4 49/5/4 51/5/4
f 49/1/4 50/1/4 51/1/4
f 51/1/4 50/1/4 52/1/4
f 46/1/4 47/1/4 53/1/4
f 47/5/4 51/5/4 54/5/4
f 53/1/4 47/1/4 54/1/4
f 51/5/4 52/5/4 54/5/4
f 54/5/4 52/5/4 55/5/4
f 54/6/4 55/6/4 56/6/4
f 56/6/4 55/6/4 57/6/4
f 54/6/4 56/6/4 58/6/4
f 56/2/4 57/2/4 58/2/4
f 58/2/4 57/2/4 59/2/4
f 53/2/4 54/2/4 60/2/4
f 54/6/4 58/6/4 61/6/4
f 60/2/4 54/2/4 61/2/4
f 58/6/4 59/6/4 61/6/4
f 61/6/4 59/6/4 62/6/4
f 60/3/4 61/3/4 63/3/4
f 61/3/4 62/3/4 63/3/4
f 63/3/4 62/3/4 64/3/4
f 60/3/4 63/3/4 65/3/4
f 63/4/4 64/4/4 65/4/4
f 65/4/4 64/4/4 66/4/4
f 60/3/4 65/3/4 67/3/4
f 65/3/4 66/3/4 67/3/4
f 67/3/4 66/3/4 68/3/4
f 60/3/4 67/3/4 69/3/4
f 67/4/4 68/4/4 70/4/4
f 69/3/4 67/3/4 70/3/4
f 68/3/4 66/3/4 71/3/4
f 70/4/4 68/4/4 71/4/4
f 71/3/4 66/3/4 72/3/4
f 77/1/5 74/1/5 73/1/5
f 78/2/5 75/2/5 74/2/5
f 78/1/5 74/1/5 77/1/5
f 79/3/5 76/3/5 75/3/5
f 79/2/5 75/2/5 78/2/5
f 80/3/5 76/3/5 79/3/5
f 83/1/6 84/1/6 91/1/6
f 84/6/6 85/6/6 91/6/6
f 85/2/6 86/2/6 92/2/6
f 91/6/6 85/6/6 92/6/6
f 92/2/6 86/2/6 93/2/6
f 93/2/6 86/2/6 94/2/6
f 86/6/6 87/6/6 95/6/6
f 94/2/6 86/2/6 95/2/6
f 87/3/6 88/3/6 96/3/6
f 95/6/6 87/6/6 96/6/6
f 91/2/6 92/2/6 97/2/6
f 92/6/6 93/6/6 97/6/6
f 93/2/6 94/2/6 98/2/6
f 97/6/6 93/6/6 98/6/6
f 98/2/6 94/2/6 99/2/6
f 99/2/6 94/2/6 100/2/6
f 94/6/6 95/6/6 101/6/6
f 100/2/6 94/2/6 101/2/6
f 95/2/6 96/2/6 102/2/6
f 101/6/6 95/6/6 102/6/6
f 97/2/6 98/2/6 103/2/6
f 98/6/6 99/6/6 103/6/6
f 99/2/6 100/2/6 104/2/6
f 103/6/6 99/6/6 104/6/6
f 104/2/6 100/2/6 105/2/6
f 105/2/6 100/2/6 106/2/6
f 100/6/6 101/6/6 107/6/6
f 106/2/6 100/2/6 107/2/6
f 101/2/6 102/2/6 108/2/6
f 107/6/6 101/6/6 108/6/6
f 103/2/6 104/2/6 109/2/6
f 104/6/6 105/6/6 109/6/6
f 105/2/6 106/2/6 110/2/6
f 109/6/6 105/6/6 110/6/6
f 106/6/6 107/6/6 111/6/6
f 110/2/6 106/2/6 111/2/6
f 107/2/6 108/2/6 112/2/6
f 111/6/6 107/6/6 112/6/6
f 81/1/6 82/1/6 113/1/6
f 82/5/6 83/5/6 114/5/6
f 113/1/6 82/1/6 114/1/6
f 83/1/6 91/1/6 115/1/6
f 114/5/6 83/5/6 115/5/6
f 115/1/6 91/1/6 116/1/6
f 103/2/6 109/2/6 117/2/6
f 109/2/6 110/2/6 117/2/6
f 110/6/6 111/6/6 118/6/6
f 117/2/6 110/2/6 118/2/6
f 111/2/6 112/2/6 119/2/6
f 118/6/6 111/6/6 119/6/6
f 112/2/6 108/2/6 120/2/6
f 119/2/6 112/2/6 120/2/6
f 81/1/6 113/1/6 121/1/6
f 113/5/6 114/5/6 122/5/6
f 121/1/6 113/1/6 122/1/6
f 114/1/6 115/1/6 123/1/6
f 122/5/6 114/5/6 123/5/6
f 115/5/6 116/5/6 124/5/6
f 123/1/6 115/1/6 124/1/6
f 116/1/6 91/1/6 125/1/6
f 124/5/6 116/5/6 125/5/6
f 125/1/6 91/1/6 126/1/6
f 97/2/6 103/2/6 127/2/6
f 103/2/6 117/2/6 127/2/6
f 117/6/6 118/6/6 128/6/6
f 127/2/6 117/2/6 128/2/6
f 118/2/6 119/2/6 129/2/6
f 128/6/6 118/6/6 129/6/6
f 119/6/6 120/6/6 130/6/6
f 129/2/6 119/2/6 130/2/6
f 120/2/6 108/2/6 131/2/6
f 130/6/6 120/6/6 131/6/6
f 108/2/6 102/2/6 132/2/6
f 131/2/6 108/2/6 132/2/6
f 81/1/6 121/1/6 133/1/6
f 121/5/6 122/5/6 134/5/6
f 133/1/6 121/1/6 134/1/6
f 123/1/6 124/1/6 135/1/6
f 134/5/6 122/5/6 135/5/6
f 122/1/6 123/1/6 135/1/6
f 124/1/6 125/1/6 135/1/6
f 125/5/6 126/5/6 136/5/6
f 135/1/6 125/1/6 136/1/6
f 126/1/6 91/1/6 137/1/6
f 136/5/6 126/5/6 137/5/6
f 91/2/6 97/2/6 138/2/6
f 137/1/6 91/1/6 138/1/6
f 97/2/6 127/2/6 138/2/6
f 127/6/6 128/6/6 139/6/6
f 138/2/6 127/2/6 139/2/6
f 129/2/6 130/2/6 140/2/6
f 139/6/6 128/6/6 140/6/6
f 130/2/6 131/2/6 140/2/6
f 128/2/6 129/2/6 140/2/6
f 131/6/6 132/6/6 141/6/6
f 140/2/6 131/2/6 141/2/6
f 132/2/6 102/2/6 142/2/6
f 141/6/6 132/6/6 142/6/6
f 96/3/6 88/3/6 143/3/6
f 142/2/6 102/2/6 143/2/6
f 102/2/6 96/2/6 143/2/6
f 133/5/6 134/5/6 144/5/6
f 136/1/6 137/1/6 145/1/6
f 144/5/6 134/5/6 145/5/6
f 135/1/6 136/1/6 145/1/6
f 134/1/6 135/1/6 145/1/6
f 137/5/6 138/5/6 146/5/6
f 145/1/6 137/1/6 146/1/6
f 138/6/6 139/6/6 147/6/6
f 146/5/6 138/5/6 147/5/6
f 140/2/6 141/2/6 148/2/6
f 147/6/6 139/6/6 148/6/6
f 141/2/6 142/2/6 148/2/6
f 139/2/6 140/2/6 148/2/6
f 142/6/6 143/6/6 149/6/6
f 148/2/6 142/2/6 149/2/6
f 143/3/6 88/3/6 150/3/6
f 149/6/6 143/6/6 150/6/6
f 88/4/6 89/4/6 151/4/6
f 150/3/6 88/3/6 151/3/6
f 89/3/6 90/3/6 152/3/6
f 151/4/6 89/4/6 152/4/6
f 152/3/6 90/3/6 153/3/6
