# MagicaVoxel @ Ephtracy

# group
o 

# material
mtllib Table2-5.mtl
usemtl palette

# normals
vn -1 0 0
vn 1 0 0
vn 0 0 1
vn 0 0 -1
vn 0 -1 0
vn 0 1 0

# texcoords
vt 0.607422 0.5
vt 0.611328 0.5
vt 0.615234 0.5
vt 0.619141 0.5
vt 0.626953 0.5
vt 0.630859 0.5
vt 0.638672 0.5
vt 0.974609 0.5

# verts
v -1.2 -0.2 -0.2
v -1.2 -0.2 -0.4
v -1.2 -0.1 -0.2
v -1.2 -0.1 -0.4
v -1.2 0 -0.2
v -1.2 0 -0.4
v -0.9 -0.2 0.3
v -0.9 -0.2 0.2
v -0.9 -0.2 0.1
v -0.9 -0.2 0
v -0.9 -0.1 0.3
v -0.9 -0.1 0.2
v -0.9 -0.1 0.1
v -0.9 -0.1 0
v -0.5 -0.2 0.3
v -0.5 -0.2 0.2
v -0.5 -0.2 0.1
v -0.5 -0.2 0
v -0.5 -0.1 0.3
v -0.5 -0.1 0.2
v -0.5 -0.1 0.1
v -0.5 -0.1 0
v -0.1 -0.2 0.3
v -0.1 -0.2 0.2
v -0.1 -0.1 0.3
v -0.1 -0.1 0.2
v 0 -0.2 0
v 0 -0.2 -0.1
v 0 -0.1 0
v 0 -0.1 -0.1
v 0.3 -0.2 0.3
v 0.3 -0.2 0.2
v 0.3 -0.2 0
v 0.3 -0.2 -0.1
v 0.3 -0.1 0.3
v 0.3 -0.1 0.2
v 0.3 -0.1 0
v 0.3 -0.1 -0.1
v 0.6 -0.2 0.3
v 0.6 -0.2 0.1
v 0.6 -0.2 0
v 0.6 -0.2 -0.2
v 0.6 -0.1 0.3
v 0.6 -0.1 0.2
v 0.6 -0.1 0.1
v 0.6 -0.1 0
v 0.6 -0.1 -0.1
v 0.6 -0.1 -0.2
v 0.6 0 0.2
v 0.6 0 0.1
v 0.6 0 0
v 0.6 0 -0.1
v 0.6 0 -0.2
v 0.6 0 -0.3
v 0.6 0 -0.4
v 0.6 0.1 0
v 0.6 0.1 -0.1
v 0.6 0.1 -0.2
v 0.6 0.1 -0.3
v 0.6 0.1 -0.4
v 0.9 -0.2 0.2
v 0.9 -0.2 0.1
v 0.9 -0.1 0.2
v 0.9 -0.1 0.1
v -0.8 -0.2 0.3
v -0.8 -0.2 0.2
v -0.8 -0.2 0.1
v -0.8 -0.2 0
v -0.8 -0.1 0.3
v -0.8 -0.1 0.2
v -0.8 -0.1 0.1
v -0.8 -0.1 0
v -0.4 -0.2 0.3
v -0.4 -0.2 0.2
v -0.4 -0.2 0.1
v -0.4 -0.2 0
v -0.4 -0.1 0.3
v -0.4 -0.1 0.2
v -0.4 -0.1 0.1
v -0.4 -0.1 0
v 0 -0.2 0.3
v 0 -0.2 0.2
v 0 -0.1 0.3
v 0 -0.1 0.2
v 0.0999999 -0.2 0
v 0.0999999 -0.2 -0.1
v 0.0999999 -0.1 0
v 0.0999999 -0.1 -0.1
v 0.4 -0.2 0.3
v 0.4 -0.2 0.2
v 0.4 -0.2 0
v 0.4 -0.2 -0.1
v 0.4 -0.1 0.3
v 0.4 -0.1 0.2
v 0.4 -0.1 0
v 0.4 -0.1 -0.1
v 0.7 -0.2 0.2
v 0.7 -0.2 0.1
v 0.7 -0.2 0
v 0.7 -0.2 -0.1
v 0.7 -0.1 0.2
v 0.7 -0.1 0.1
v 0.7 -0.1 0
v 0.7 -0.1 -0.1
v 1 -0.2 0.3
v 1 -0.2 0.2
v 1 -0.2 0.1
v 1 -0.1 0.3
v 1 -0.1 0.2
v 1 -0.1 0.1
v 1 -0.1 -0.1
v 1 -0.1 -0.2
v 1 -0.1 -0.3
v 1 -0.1 -0.4
v 1 0 0.2
v 1 0 0.1
v 1 0 0
v 1 0 -0.1
v 1 0 -0.2
v 1 0 -0.3
v 1 0.1 0
v 1 0.1 -0.1
v 1 0.1 -0.2
v 1 0.1 -0.3
v 1 0.1 -0.4
v 1.1 -0.2 -0.1
v 1.1 -0.2 -0.2
v 1.1 -0.2 -0.4
v 1.1 -0.1 -0.1
v 1.1 -0.1 -0.2
v 1.1 -0.1 -0.4
v -0.9 -0.2 0.3
v -0.9 -0.1 0.3
v -0.8 -0.2 0.3
v -0.8 -0.1 0.3
v -0.5 -0.2 0.3
v -0.5 -0.1 0.3
v -0.4 -0.2 0.3
v -0.4 -0.1 0.3
v -0.1 -0.2 0.3
v -0.1 -0.1 0.3
v 0 -0.2 0.3
v 0 -0.1 0.3
v 0.3 -0.2 0.3
v 0.3 -0.1 0.3
v 0.4 -0.2 0.3
v 0.4 -0.1 0.3
v 0.6 -0.2 0.3
v 0.6 -0.1 0.3
v 0.7 -0.2 0.3
v 0.7 -0.1 0.3
v 0.9 -0.2 0.3
v 0.9 -0.1 0.3
v 1 -0.2 0.3
v 1 -0.1 0.3
v 0.6 -0.1 0.2
v 0.6 0 0.2
v 0.7 -0.1 0.2
v 0.7 0 0.2
v 0.8 -0.1 0.2
v 0.8 0 0.2
v 0.9 -0.1 0.2
v 0.9 0 0.2
v 1 -0.1 0.2
v 1 0 0.2
v -0.9 -0.2 0.1
v -0.9 -0.1 0.1
v -0.8 -0.2 0.1
v -0.8 -0.1 0.1
v -0.5 -0.2 0.1
v -0.5 -0.1 0.1
v -0.4 -0.2 0.1
v -0.4 -0.1 0.1
v 0 -0.2 0
v 0 -0.1 0
v 0.0999999 -0.2 0
v 0.0999999 -0.1 0
v 0.3 -0.2 0
v 0.3 -0.1 0
v 0.4 -0.2 0
v 0.4 -0.1 0
v 0.6 0 0
v 0.6 0.1 0
v 0.7 0 0
v 0.7 0.1 0
v 0.8 0 0
v 0.8 0.1 0
v 0.9 0 0
v 0.9 0.1 0
v 1 0 0
v 1 0.1 0
v 0.7 -0.2 -0.1
v 0.7 -0.1 -0.1
v 0.8 -0.2 -0.1
v 0.8 -0.1 -0.1
v 0.9 -0.2 -0.1
v 0.9 -0.1 -0.1
v 1 -0.1 -0.1
v 1.1 -0.2 -0.1
v 1.1 -0.1 -0.1
v -1.2 -0.2 -0.2
v -1.2 -0.1 -0.2
v -1.2 0 -0.2
v -1.1 -0.1 -0.2
v -1.1 0 -0.2
v -1 -0.2 -0.2
v -1 -0.1 -0.2
v -1 0 -0.2
v -0.9 -0.2 -0.2
v -0.9 -0.1 -0.2
v -0.9 0 -0.2
v -0.8 -0.2 -0.2
v -0.8 -0.1 -0.2
v -0.8 0 -0.2
v -0.7 -0.2 -0.2
v -0.7 -0.1 -0.2
v -0.6 -0.2 -0.2
v -0.6 -0.1 -0.2
v -0.6 0 -0.2
v -0.5 -0.2 -0.2
v -0.5 -0.1 -0.2
v -0.5 0 -0.2
v -0.4 -0.2 -0.2
v -0.4 -0.1 -0.2
v -0.4 0 -0.2
v -0.3 -0.2 -0.2
v -0.3 -0.1 -0.2
v -0.3 0 -0.2
v -0.2 -0.2 -0.2
v -0.2 -0.1 -0.2
v -0.1 -0.2 -0.2
v -0.1 -0.1 -0.2
v -0.1 0 -0.2
v 0 -0.2 -0.2
v 0 -0.1 -0.2
v 0 0 -0.2
v 0.0999999 -0.1 -0.2
v 0.0999999 0 -0.2
v 0.2 -0.2 -0.2
v 0.2 -0.1 -0.2
v 0.2 0 -0.2
v 0.3 -0.1 -0.2
v 0.3 0 -0.2
v 0.4 -0.2 -0.2
v 0.4 -0.1 -0.2
v 0.4 0 -0.2
v 0.5 -0.1 -0.2
v 0.5 0 -0.2
v 0.6 -0.2 -0.2
v 0.6 -0.1 -0.2
v 0.6 0 -0.2
v -0.9 -0.2 0.2
v -0.9 -0.1 0.2
v -0.8 -0.2 0.2
v -0.8 -0.1 0.2
v -0.5 -0.2 0.2
v -0.5 -0.1 0.2
v -0.4 -0.2 0.2
v -0.4 -0.1 0.2
v -0.1 -0.2 0.2
v -0.1 -0.1 0.2
v 0 -0.2 0.2
v 0 -0.1 0.2
v 0.3 -0.2 0.2
v 0.3 -0.1 0.2
v 0.4 -0.2 0.2
v 0.4 -0.1 0.2
v 0.7 -0.2 0.2
v 0.7 -0.1 0.2
v 0.8 -0.1 0.2
v 0.9 -0.2 0.2
v 0.9 -0.1 0.2
v 0.9 -0.2 0.1
v 0.9 -0.1 0.1
v 1 -0.2 0.1
v 1 -0.1 0.1
v -0.9 -0.2 0
v -0.9 -0.1 0
v -0.8 -0.2 0
v -0.8 -0.1 0
v -0.5 -0.2 0
v -0.5 -0.1 0
v -0.4 -0.2 0
v -0.4 -0.1 0
v 0 -0.2 -0.1
v 0 -0.1 -0.1
v 0.0999999 -0.2 -0.1
v 0.0999999 -0.1 -0.1
v 0.3 -0.2 -0.1
v 0.3 -0.1 -0.1
v 0.4 -0.2 -0.1
v 0.4 -0.1 -0.1
v -1.2 -0.2 -0.4
v -1.2 -0.1 -0.4
v -1.2 0 -0.4
v -1.1 -0.2 -0.4
v -1.1 -0.1 -0.4
v -1.1 0 -0.4
v -1 -0.1 -0.4
v -1 0 -0.4
v -0.9 -0.2 -0.4
v -0.9 -0.1 -0.4
v -0.9 0 -0.4
v -0.8 -0.1 -0.4
v -0.8 0 -0.4
v -0.7 -0.2 -0.4
v -0.7 -0.1 -0.4
v -0.7 0 -0.4
v -0.6 -0.2 -0.4
v -0.6 -0.1 -0.4
v -0.5 -0.2 -0.4
v -0.5 -0.1 -0.4
v -0.3 -0.2 -0.4
v -0.3 -0.1 -0.4
v -0.3 0 -0.4
v -0.2 -0.2 -0.4
v -0.2 -0.1 -0.4
v -0.2 0 -0.4
v -0.1 -0.1 -0.4
v -0.1 0 -0.4
v 0 -0.2 -0.4
v 0 -0.1 -0.4
v 0 0 -0.4
v 0.0999999 -0.2 -0.4
v 0.0999999 -0.1 -0.4
v 0.0999999 0 -0.4
v 0.2 -0.2 -0.4
v 0.2 -0.1 -0.4
v 0.3 -0.2 -0.4
v 0.3 -0.1 -0.4
v 0.3 0 -0.4
v 0.4 -0.2 -0.4
v 0.4 -0.1 -0.4
v 0.4 0 -0.4
v 0.5 -0.2 -0.4
v 0.5 -0.1 -0.4
v 0.5 0 -0.4
v 0.6 -0.2 -0.4
v 0.6 -0.1 -0.4
v 0.6 0 -0.4
v 0.6 0.1 -0.4
v 0.7 -0.2 -0.4
v 0.7 -0.1 -0.4
v 0.7 0 -0.4
v 0.7 0.1 -0.4
v 0.8 -0.2 -0.4
v 0.8 0.1 -0.4
v 0.9 -0.2 -0.4
v 0.9 0.1 -0.4
v 1 -0.2 -0.4
v 1 -0.1 -0.4
v 1 0.1 -0.4
v 1.1 -0.2 -0.4
v 1.1 -0.1 -0.4
v -0.9 -0.2 0.3
v -0.8 -0.2 0.3
v -0.5 -0.2 0.3
v -0.4 -0.2 0.3
v -0.1 -0.2 0.3
v 0 -0.2 0.3
v 0.3 -0.2 0.3
v 0.4 -0.2 0.3
v 0.6 -0.2 0.3
v 0.7 -0.2 0.3
v 0.9 -0.2 0.3
v 1 -0.2 0.3
v -0.9 -0.2 0.2
v -0.8 -0.2 0.2
v -0.5 -0.2 0.2
v -0.4 -0.2 0.2
v -0.1 -0.2 0.2
v 0 -0.2 0.2
v 0.3 -0.2 0.2
v 0.4 -0.2 0.2
v 0.7 -0.2 0.2
v 0.9 -0.2 0.2
v 1 -0.2 0.2
v -0.9 -0.2 0.1
v -0.8 -0.2 0.1
v -0.5 -0.2 0.1
v -0.4 -0.2 0.1
v 0.6 -0.2 0.1
v 0.7 -0.2 0.1
v 0.9 -0.2 0.1
v 1 -0.2 0.1
v -0.9 -0.2 0
v -0.8 -0.2 0
v -0.5 -0.2 0
v -0.4 -0.2 0
v 0 -0.2 0
v 0.0999999 -0.2 0
v 0.3 -0.2 0
v 0.4 -0.2 0
v 0.6 -0.2 0
v 0.7 -0.2 0
v 0 -0.2 -0.1
v 0.0999999 -0.2 -0.1
v 0.3 -0.2 -0.1
v 0.4 -0.2 -0.1
v 0.7 -0.2 -0.1
v 0.8 -0.2 -0.1
v 0.9 -0.2 -0.1
v 1.1 -0.2 -0.1
v -1.2 -0.2 -0.2
v -1 -0.2 -0.2
v -0.9 -0.2 -0.2
v -0.8 -0.2 -0.2
v -0.7 -0.2 -0.2
v -0.6 -0.2 -0.2
v -0.5 -0.2 -0.2
v -0.4 -0.2 -0.2
v -0.3 -0.2 -0.2
v -0.2 -0.2 -0.2
v -0.1 -0.2 -0.2
v 0 -0.2 -0.2
v 0.2 -0.2 -0.2
v 0.4 -0.2 -0.2
v 0.6 -0.2 -0.2
v 0.7 -0.2 -0.2
v 0.8 -0.2 -0.2
v 0.9 -0.2 -0.2
v 1 -0.2 -0.2
v 1.1 -0.2 -0.2
v -1.1 -0.2 -0.3
v -1 -0.2 -0.3
v -0.9 -0.2 -0.3
v -0.8 -0.2 -0.3
v -0.7 -0.2 -0.3
v -0.6 -0.2 -0.3
v -0.4 -0.2 -0.3
v -0.3 -0.2 -0.3
v -0.2 -0.2 -0.3
v -0.1 -0.2 -0.3
v 0 -0.2 -0.3
v 0.0999999 -0.2 -0.3
v 0.3 -0.2 -0.3
v 0.4 -0.2 -0.3
v 0.5 -0.2 -0.3
v 0.6 -0.2 -0.3
v 0.7 -0.2 -0.3
v 0.9 -0.2 -0.3
v 1 -0.2 -0.3
v -1.2 -0.2 -0.4
v -1.1 -0.2 -0.4
v -0.9 -0.2 -0.4
v -0.7 -0.2 -0.4
v -0.6 -0.2 -0.4
v -0.5 -0.2 -0.4
v -0.3 -0.2 -0.4
v -0.2 -0.2 -0.4
v 0 -0.2 -0.4
v 0.0999999 -0.2 -0.4
v 0.2 -0.2 -0.4
v 0.3 -0.2 -0.4
v 0.4 -0.2 -0.4
v 0.5 -0.2 -0.4
v 0.6 -0.2 -0.4
v 0.7 -0.2 -0.4
v 0.8 -0.2 -0.4
v 0.9 -0.2 -0.4
v 1 -0.2 -0.4
v 1.1 -0.2 -0.4
v 0.7 -0.1 0.2
v 0.8 -0.1 0.2
v 0.9 -0.1 0.2
v 0.7 -0.1 0.1
v 0.8 -0.1 0.1
v 0.9 -0.1 0.1
v 1 -0.1 0.1
v 0.7 -0.1 0
v 0.8 -0.1 0
v 0.9 -0.1 0
v 0.7 -0.1 -0.1
v 0.8 -0.1 -0.1
v 0.9 -0.1 -0.1
v 1 -0.1 -0.1
v -0.9 -0.1 0.3
v -0.8 -0.1 0.3
v -0.5 -0.1 0.3
v -0.4 -0.1 0.3
v -0.1 -0.1 0.3
v 0 -0.1 0.3
v 0.3 -0.1 0.3
v 0.4 -0.1 0.3
v 0.6 -0.1 0.3
v 0.7 -0.1 0.3
v 0.9 -0.1 0.3
v 1 -0.1 0.3
v -0.9 -0.1 0.2
v -0.8 -0.1 0.2
v -0.5 -0.1 0.2
v -0.4 -0.1 0.2
v -0.1 -0.1 0.2
v 0 -0.1 0.2
v 0.3 -0.1 0.2
v 0.4 -0.1 0.2
v 0.6 -0.1 0.2
v 0.7 -0.1 0.2
v 0.8 -0.1 0.2
v 0.9 -0.1 0.2
v 1 -0.1 0.2
v -0.9 -0.1 0.1
v -0.8 -0.1 0.1
v -0.5 -0.1 0.1
v -0.4 -0.1 0.1
v -0.9 -0.1 0
v -0.8 -0.1 0
v -0.5 -0.1 0
v -0.4 -0.1 0
v 0 -0.1 0
v 0.0999999 -0.1 0
v 0.3 -0.1 0
v 0.4 -0.1 0
v 0 -0.1 -0.1
v 0.0999999 -0.1 -0.1
v 0.3 -0.1 -0.1
v 0.4 -0.1 -0.1
v 1 -0.1 -0.1
v 1.1 -0.1 -0.1
v 1 -0.1 -0.2
v 1.1 -0.1 -0.2
v 1 -0.1 -0.3
v 1 -0.1 -0.4
v 1.1 -0.1 -0.4
v 0.6 0 0.2
v 0.7 0 0.2
v 0.8 0 0.2
v 0.9 0 0.2
v 1 0 0.2
v 0.6 0 0.1
v 0.7 0 0.1
v 0.8 0 0.1
v 0.9 0 0.1
v 1 0 0.1
v 0.6 0 0
v 0.7 0 0
v 0.8 0 0
v 0.9 0 0
v 1 0 0
v -1.2 0 -0.2
v -1.1 0 -0.2
v -1 0 -0.2
v -0.9 0 -0.2
v -0.8 0 -0.2
v -0.6 0 -0.2
v -0.5 0 -0.2
v -0.4 0 -0.2
v -0.3 0 -0.2
v -0.1 0 -0.2
v 0 0 -0.2
v 0.0999999 0 -0.2
v 0.2 0 -0.2
v 0.3 0 -0.2
v 0.4 0 -0.2
v 0.5 0 -0.2
v 0.6 0 -0.2
v -1.1 0 -0.3
v -1 0 -0.3
v -0.9 0 -0.3
v -0.8 0 -0.3
v -0.7 0 -0.3
v -0.6 0 -0.3
v -0.5 0 -0.3
v -0.4 0 -0.3
v -0.3 0 -0.3
v -0.2 0 -0.3
v -0.1 0 -0.3
v 0 0 -0.3
v 0.0999999 0 -0.3
v 0.2 0 -0.3
v 0.3 0 -0.3
v 0.4 0 -0.3
v 0.5 0 -0.3
v 0.6 0 -0.3
v -1.2 0 -0.4
v -1.1 0 -0.4
v -1 0 -0.4
v -0.9 0 -0.4
v -0.8 0 -0.4
v -0.7 0 -0.4
v -0.3 0 -0.4
v -0.2 0 -0.4
v -0.1 0 -0.4
v 0 0 -0.4
v 0.0999999 0 -0.4
v 0.3 0 -0.4
v 0.4 0 -0.4
v 0.5 0 -0.4
v 0.6 0 -0.4
v 0.6 0.1 0
v 0.7 0.1 0
v 0.8 0.1 0
v 0.9 0.1 0
v 1 0.1 0
v 0.6 0.1 -0.1
v 0.7 0.1 -0.1
v 0.8 0.1 -0.1
v 0.9 0.1 -0.1
v 1 0.1 -0.1
v 0.6 0.1 -0.2
v 0.7 0.1 -0.2
v 0.8 0.1 -0.2
v 0.9 0.1 -0.2
v 1 0.1 -0.2
v 0.6 0.1 -0.3
v 0.7 0.1 -0.3
v 0.8 0.1 -0.3
v 0.9 0.1 -0.3
v 1 0.1 -0.3
v 0.6 0.1 -0.4
v 0.7 0.1 -0.4
v 0.8 0.1 -0.4
v 0.9 0.1 -0.4
v 1 0.1 -0.4

# faces
f 3/3/1 2/3/1 1/3/1
f 4/3/1 2/3/1 3/3/1
f 5/4/1 4/4/1 3/4/1
f 6/4/1 4/4/1 5/4/1
f 11/8/1 8/8/1 7/8/1
f 12/8/1 8/8/1 11/8/1
f 13/8/1 10/8/1 9/8/1
f 14/8/1 10/8/1 13/8/1
f 19/8/1 16/8/1 15/8/1
f 20/8/1 16/8/1 19/8/1
f 21/8/1 18/8/1 17/8/1
f 22/8/1 18/8/1 21/8/1
f 25/8/1 24/8/1 23/8/1
f 26/8/1 24/8/1 25/8/1
f 29/8/1 28/8/1 27/8/1
f 30/8/1 28/8/1 29/8/1
f 35/8/1 32/8/1 31/8/1
f 36/8/1 32/8/1 35/8/1
f 37/8/1 34/8/1 33/8/1
f 38/8/1 34/8/1 37/8/1
f 43/5/1 40/5/1 39/5/1
f 44/5/1 40/5/1 43/5/1
f 45/7/1 41/7/1 40/7/1
f 45/5/1 40/5/1 44/5/1
f 46/6/1 42/6/1 41/6/1
f 46/7/1 41/7/1 45/7/1
f 47/6/1 42/6/1 46/6/1
f 48/6/1 42/6/1 47/6/1
f 49/5/1 45/5/1 44/5/1
f 50/8/1 46/8/1 45/8/1
f 50/5/1 45/5/1 49/5/1
f 51/5/1 47/5/1 46/5/1
f 51/8/1 46/8/1 50/8/1
f 52/6/1 48/6/1 47/6/1
f 52/5/1 47/5/1 51/5/1
f 53/6/1 48/6/1 52/6/1
f 56/5/1 52/5/1 51/5/1
f 57/7/1 53/7/1 52/7/1
f 57/5/1 52/5/1 56/5/1
f 58/5/1 54/5/1 53/5/1
f 58/7/1 53/7/1 57/7/1
f 59/7/1 55/7/1 54/7/1
f 59/5/1 54/5/1 58/5/1
f 60/7/1 55/7/1 59/7/1
f 63/6/1 62/6/1 61/6/1
f 64/6/1 62/6/1 63/6/1
f 65/8/2 66/8/2 69/8/2
f 69/8/2 66/8/2 70/8/2
f 67/8/2 68/8/2 71/8/2
f 71/8/2 68/8/2 72/8/2
f 73/8/2 74/8/2 77/8/2
f 77/8/2 74/8/2 78/8/2
f 75/8/2 76/8/2 79/8/2
f 79/8/2 76/8/2 80/8/2
f 81/8/2 82/8/2 83/8/2
f 83/8/2 82/8/2 84/8/2
f 85/8/2 86/8/2 87/8/2
f 87/8/2 86/8/2 88/8/2
f 89/8/2 90/8/2 93/8/2
f 93/8/2 90/8/2 94/8/2
f 91/8/2 92/8/2 95/8/2
f 95/8/2 92/8/2 96/8/2
f 97/5/2 98/5/2 101/5/2
f 98/7/2 99/7/2 102/7/2
f 101/5/2 98/5/2 102/5/2
f 99/6/2 100/6/2 103/6/2
f 102/7/2 99/7/2 103/7/2
f 103/6/2 100/6/2 104/6/2
f 105/8/2 106/8/2 108/8/2
f 106/6/2 107/6/2 109/6/2
f 108/8/2 106/8/2 109/8/2
f 109/6/2 107/6/2 110/6/2
f 109/7/2 110/7/2 115/7/2
f 110/5/2 111/5/2 116/5/2
f 115/7/2 110/7/2 116/7/2
f 111/5/2 112/5/2 116/5/2
f 116/5/2 112/5/2 117/5/2
f 117/5/2 112/5/2 118/5/2
f 112/3/2 113/3/2 119/3/2
f 118/5/2 112/5/2 119/5/2
f 113/6/2 114/6/2 120/6/2
f 119/3/2 113/3/2 120/3/2
f 117/6/2 118/6/2 121/6/2
f 118/7/2 119/7/2 122/7/2
f 121/6/2 118/6/2 122/6/2
f 119/5/2 120/5/2 123/5/2
f 122/7/2 119/7/2 123/7/2
f 120/6/2 114/6/2 124/6/2
f 123/5/2 120/5/2 124/5/2
f 124/6/2 114/6/2 125/6/2
f 126/5/2 127/5/2 129/5/2
f 127/7/2 128/7/2 130/7/2
f 129/5/2 127/5/2 130/5/2
f 130/7/2 128/7/2 131/7/2
f 134/8/3 133/8/3 132/8/3
f 135/8/3 133/8/3 134/8/3
f 138/8/3 137/8/3 136/8/3
f 139/8/3 137/8/3 138/8/3
f 142/8/3 141/8/3 140/8/3
f 143/8/3 141/8/3 142/8/3
f 146/8/3 145/8/3 144/8/3
f 147/8/3 145/8/3 146/8/3
f 150/5/3 149/5/3 148/5/3
f 151/5/3 149/5/3 150/5/3
f 152/6/3 151/6/3 150/6/3
f 153/6/3 151/6/3 152/6/3
f 154/8/3 153/8/3 152/8/3
f 155/8/3 153/8/3 154/8/3
f 158/5/3 157/5/3 156/5/3
f 159/5/3 157/5/3 158/5/3
f 160/8/3 159/8/3 158/8/3
f 161/8/3 159/8/3 160/8/3
f 162/5/3 161/5/3 160/5/3
f 163/5/3 161/5/3 162/5/3
f 164/7/3 163/7/3 162/7/3
f 165/7/3 163/7/3 164/7/3
f 168/8/3 167/8/3 166/8/3
f 169/8/3 167/8/3 168/8/3
f 172/8/3 171/8/3 170/8/3
f 173/8/3 171/8/3 172/8/3
f 176/8/3 175/8/3 174/8/3
f 177/8/3 175/8/3 176/8/3
f 180/8/3 179/8/3 178/8/3
f 181/8/3 179/8/3 180/8/3
f 184/5/3 183/5/3 182/5/3
f 185/5/3 183/5/3 184/5/3
f 186/6/3 185/6/3 184/6/3
f 187/6/3 185/6/3 186/6/3
f 188/7/3 187/7/3 186/7/3
f 189/7/3 187/7/3 188/7/3
f 190/6/3 189/6/3 188/6/3
f 191/6/3 189/6/3 190/6/3
f 194/7/3 193/7/3 192/7/3
f 195/7/3 193/7/3 194/7/3
f 196/6/3 195/6/3 194/6/3
f 197/6/3 195/6/3 196/6/3
f 198/5/3 197/5/3 196/5/3
f 199/5/3 198/5/3 196/5/3
f 200/5/3 198/5/3 199/5/3
f 204/3/3 202/3/3 201/3/3
f 204/4/3 203/4/3 202/4/3
f 205/4/3 203/4/3 204/4/3
f 206/3/3 204/3/3 201/3/3
f 207/2/3 205/2/3 204/2/3
f 207/3/3 204/3/3 206/3/3
f 208/2/3 205/2/3 207/2/3
f 209/2/3 207/2/3 206/2/3
f 210/1/3 208/1/3 207/1/3
f 210/2/3 207/2/3 209/2/3
f 211/1/3 208/1/3 210/1/3
f 212/3/3 210/3/3 209/3/3
f 213/8/3 211/8/3 210/8/3
f 213/3/3 210/3/3 212/3/3
f 214/8/3 211/8/3 213/8/3
f 215/2/3 213/2/3 212/2/3
f 216/4/3 214/4/3 213/4/3
f 216/2/3 213/2/3 215/2/3
f 217/1/3 216/1/3 215/1/3
f 218/4/3 214/4/3 216/4/3
f 218/1/3 216/1/3 217/1/3
f 219/4/3 214/4/3 218/4/3
f 220/2/3 218/2/3 217/2/3
f 221/1/3 219/1/3 218/1/3
f 221/2/3 218/2/3 220/2/3
f 222/1/3 219/1/3 221/1/3
f 223/3/3 221/3/3 220/3/3
f 223/3/3 222/3/3 221/3/3
f 224/3/3 222/3/3 223/3/3
f 225/3/3 222/3/3 224/3/3
f 226/4/3 224/4/3 223/4/3
f 227/2/3 225/2/3 224/2/3
f 227/4/3 224/4/3 226/4/3
f 228/2/3 225/2/3 227/2/3
f 229/1/3 227/1/3 226/1/3
f 229/1/3 228/1/3 227/1/3
f 230/1/3 228/1/3 229/1/3
f 231/4/3 230/4/3 229/4/3
f 232/1/3 228/1/3 230/1/3
f 232/4/3 230/4/3 231/4/3
f 233/1/3 228/1/3 232/1/3
f 234/3/3 232/3/3 231/3/3
f 235/2/3 233/2/3 232/2/3
f 235/3/3 232/3/3 234/3/3
f 236/2/3 233/2/3 235/2/3
f 237/2/3 235/2/3 234/2/3
f 237/8/3 236/8/3 235/8/3
f 238/8/3 236/8/3 237/8/3
f 239/2/3 237/2/3 234/2/3
f 240/4/3 238/4/3 237/4/3
f 240/2/3 237/2/3 239/2/3
f 241/4/3 238/4/3 240/4/3
f 242/4/3 240/4/3 239/4/3
f 242/2/3 241/2/3 240/2/3
f 243/2/3 241/2/3 242/2/3
f 244/4/3 242/4/3 239/4/3
f 245/8/3 243/8/3 242/8/3
f 245/4/3 242/4/3 244/4/3
f 246/8/3 243/8/3 245/8/3
f 247/2/3 245/2/3 244/2/3
f 247/2/3 246/2/3 245/2/3
f 248/2/3 246/2/3 247/2/3
f 249/2/3 247/2/3 244/2/3
f 250/1/3 248/1/3 247/1/3
f 250/2/3 247/2/3 249/2/3
f 251/1/3 248/1/3 250/1/3
f 252/8/4 253/8/4 254/8/4
f 254/8/4 253/8/4 255/8/4
f 256/8/4 257/8/4 258/8/4
f 258/8/4 257/8/4 259/8/4
f 260/8/4 261/8/4 262/8/4
f 262/8/4 261/8/4 263/8/4
f 264/8/4 265/8/4 266/8/4
f 266/8/4 265/8/4 267/8/4
f 268/6/4 269/6/4 270/6/4
f 268/6/4 270/6/4 271/6/4
f 271/6/4 270/6/4 272/6/4
f 273/6/4 274/6/4 275/6/4
f 275/6/4 274/6/4 276/6/4
f 277/8/4 278/8/4 279/8/4
f 279/8/4 278/8/4 280/8/4
f 281/8/4 282/8/4 283/8/4
f 283/8/4 282/8/4 284/8/4
f 285/8/4 286/8/4 287/8/4
f 287/8/4 286/8/4 288/8/4
f 289/8/4 290/8/4 291/8/4
f 291/8/4 290/8/4 292/8/4
f 293/3/4 294/3/4 296/3/4
f 294/4/4 295/4/4 297/4/4
f 296/3/4 294/3/4 297/3/4
f 297/4/4 295/4/4 298/4/4
f 296/1/4 297/1/4 299/1/4
f 297/8/4 298/8/4 299/8/4
f 299/8/4 298/8/4 300/8/4
f 296/1/4 299/1/4 301/1/4
f 299/3/4 300/3/4 302/3/4
f 301/1/4 299/1/4 302/1/4
f 302/3/4 300/3/4 303/3/4
f 301/2/4 302/2/4 304/2/4
f 302/4/4 303/4/4 304/4/4
f 304/4/4 303/4/4 305/4/4
f 301/2/4 304/2/4 306/2/4
f 304/2/4 305/2/4 306/2/4
f 306/2/4 305/2/4 307/2/4
f 307/2/4 305/2/4 308/2/4
f 306/4/4 307/4/4 309/4/4
f 307/3/4 308/3/4 310/3/4
f 309/4/4 307/4/4 310/4/4
f 309/2/4 310/2/4 311/2/4
f 310/3/4 308/3/4 312/3/4
f 311/2/4 310/2/4 312/2/4
f 311/3/4 312/3/4 313/3/4
f 312/3/4 308/3/4 314/3/4
f 313/3/4 312/3/4 314/3/4
f 314/3/4 308/3/4 315/3/4
f 313/2/4 314/2/4 316/2/4
f 314/4/4 315/4/4 317/4/4
f 316/2/4 314/2/4 317/2/4
f 317/4/4 315/4/4 318/4/4
f 316/3/4 317/3/4 319/3/4
f 317/8/4 318/8/4 319/8/4
f 319/8/4 318/8/4 320/8/4
f 316/3/4 319/3/4 321/3/4
f 319/4/4 320/4/4 322/4/4
f 321/3/4 319/3/4 322/3/4
f 322/4/4 320/4/4 323/4/4
f 321/4/4 322/4/4 324/4/4
f 322/1/4 323/1/4 325/1/4
f 324/4/4 322/4/4 325/4/4
f 325/1/4 323/1/4 326/1/4
f 324/2/4 325/2/4 327/2/4
f 325/3/4 326/3/4 328/3/4
f 327/2/4 325/2/4 328/2/4
f 327/4/4 328/4/4 329/4/4
f 328/3/4 326/3/4 330/3/4
f 329/4/4 328/4/4 330/4/4
f 330/3/4 326/3/4 331/3/4
f 329/3/4 330/3/4 332/3/4
f 330/4/4 331/4/4 333/4/4
f 332/3/4 330/3/4 333/3/4
f 333/4/4 331/4/4 334/4/4
f 332/2/4 333/2/4 335/2/4
f 333/3/4 334/3/4 336/3/4
f 335/2/4 333/2/4 336/2/4
f 336/3/4 334/3/4 337/3/4
f 335/1/4 336/1/4 338/1/4
f 336/2/4 337/2/4 339/2/4
f 338/1/4 336/1/4 339/1/4
f 339/2/4 337/2/4 340/2/4
f 338/4/4 339/4/4 342/4/4
f 339/5/4 340/5/4 343/5/4
f 342/4/4 339/4/4 343/4/4
f 340/7/4 341/7/4 344/7/4
f 343/5/4 340/5/4 344/5/4
f 344/7/4 341/7/4 345/7/4
f 342/5/4 343/5/4 346/5/4
f 343/5/4 344/5/4 346/5/4
f 344/5/4 345/5/4 346/5/4
f 346/5/4 345/5/4 347/5/4
f 346/7/4 347/7/4 348/7/4
f 348/7/4 347/7/4 349/7/4
f 348/6/4 349/6/4 350/6/4
f 350/6/4 349/6/4 351/6/4
f 351/6/4 349/6/4 352/6/4
f 350/7/4 351/7/4 353/7/4
f 353/7/4 351/7/4 354/7/4
f 367/8/5 356/8/5 355/8/5
f 368/8/5 356/8/5 367/8/5
f 369/8/5 358/8/5 357/8/5
f 370/8/5 358/8/5 369/8/5
f 371/8/5 360/8/5 359/8/5
f 372/8/5 360/8/5 371/8/5
f 373/8/5 362/8/5 361/8/5
f 374/8/5 362/8/5 373/8/5
f 375/5/5 364/5/5 363/5/5
f 375/6/5 365/6/5 364/6/5
f 376/8/5 366/8/5 365/8/5
f 376/6/5 365/6/5 375/6/5
f 377/8/5 366/8/5 376/8/5
f 382/5/5 375/5/5 363/5/5
f 383/5/5 375/5/5 382/5/5
f 384/6/5 377/6/5 376/6/5
f 385/6/5 377/6/5 384/6/5
f 386/8/5 379/8/5 378/8/5
f 387/8/5 379/8/5 386/8/5
f 388/8/5 381/8/5 380/8/5
f 389/8/5 381/8/5 388/8/5
f 394/7/5 383/7/5 382/7/5
f 395/7/5 383/7/5 394/7/5
f 396/8/5 391/8/5 390/8/5
f 397/8/5 391/8/5 396/8/5
f 398/8/5 393/8/5 392/8/5
f 399/8/5 393/8/5 398/8/5
f 400/6/5 395/6/5 394/6/5
f 418/6/5 400/6/5 394/6/5
f 419/7/5 401/7/5 400/7/5
f 419/6/5 400/6/5 418/6/5
f 420/6/5 402/6/5 401/6/5
f 420/7/5 401/7/5 419/7/5
f 421/5/5 403/5/5 402/5/5
f 421/6/5 402/6/5 420/6/5
f 422/5/5 403/5/5 421/5/5
f 423/5/5 403/5/5 422/5/5
f 424/3/5 405/3/5 404/3/5
f 425/2/5 406/2/5 405/2/5
f 425/3/5 405/3/5 424/3/5
f 426/3/5 407/3/5 406/3/5
f 426/2/5 406/2/5 425/2/5
f 427/2/5 408/2/5 407/2/5
f 427/3/5 407/3/5 426/3/5
f 428/1/5 409/1/5 408/1/5
f 428/2/5 408/2/5 427/2/5
f 429/2/5 410/2/5 409/2/5
f 429/1/5 409/1/5 428/1/5
f 430/3/5 411/3/5 410/3/5
f 430/4/5 412/4/5 411/4/5
f 431/1/5 413/1/5 412/1/5
f 431/4/5 412/4/5 430/4/5
f 432/4/5 414/4/5 413/4/5
f 432/1/5 413/1/5 431/1/5
f 433/3/5 415/3/5 414/3/5
f 433/4/5 414/4/5 432/4/5
f 434/2/5 416/2/5 415/2/5
f 434/3/5 415/3/5 433/3/5
f 435/2/5 416/2/5 434/2/5
f 436/4/5 417/4/5 416/4/5
f 437/2/5 418/2/5 417/2/5
f 437/4/5 417/4/5 436/4/5
f 438/2/5 418/2/5 437/2/5
f 439/5/5 419/5/5 418/5/5
f 439/2/5 418/2/5 438/2/5
f 439/5/5 420/5/5 419/5/5
f 440/5/5 420/5/5 439/5/5
f 441/7/5 421/7/5 420/7/5
f 441/5/5 422/5/5 421/5/5
f 442/7/5 423/7/5 422/7/5
f 442/5/5 422/5/5 441/5/5
f 443/3/5 424/3/5 404/3/5
f 444/1/5 425/1/5 424/1/5
f 444/3/5 424/3/5 443/3/5
f 444/1/5 426/1/5 425/1/5
f 445/2/5 427/2/5 426/2/5
f 445/1/5 426/1/5 444/1/5
f 445/2/5 428/2/5 427/2/5
f 446/4/5 429/4/5 428/4/5
f 446/2/5 428/2/5 445/2/5
f 447/2/5 410/2/5 429/2/5
f 447/4/5 429/4/5 446/4/5
f 448/3/5 430/3/5 410/3/5
f 448/2/5 410/2/5 447/2/5
f 448/3/5 431/3/5 430/3/5
f 449/2/5 432/2/5 431/2/5
f 449/3/5 431/3/5 448/3/5
f 450/3/5 433/3/5 432/3/5
f 450/2/5 432/2/5 449/2/5
f 450/3/5 434/3/5 433/3/5
f 451/4/5 435/4/5 434/4/5
f 451/3/5 434/3/5 450/3/5
f 452/2/5 416/2/5 435/2/5
f 452/4/5 435/4/5 451/4/5
f 453/4/5 436/4/5 416/4/5
f 453/2/5 416/2/5 452/2/5
f 454/3/5 437/3/5 436/3/5
f 454/4/5 436/4/5 453/4/5
f 455/2/5 438/2/5 437/2/5
f 455/3/5 437/3/5 454/3/5
f 456/1/5 439/1/5 438/1/5
f 456/2/5 438/2/5 455/2/5
f 457/4/5 440/4/5 439/4/5
f 457/1/5 439/1/5 456/1/5
f 458/5/5 420/5/5 440/5/5
f 458/4/5 440/4/5 457/4/5
f 459/7/5 441/7/5 420/7/5
f 459/5/5 420/5/5 458/5/5
f 460/6/5 442/6/5 441/6/5
f 460/7/5 441/7/5 459/7/5
f 461/7/5 423/7/5 442/7/5
f 461/6/5 442/6/5 460/6/5
f 462/7/5 423/7/5 461/7/5
f 466/8/5 464/8/5 463/8/5
f 467/5/5 465/5/5 464/5/5
f 467/8/5 464/8/5 466/8/5
f 468/5/5 465/5/5 467/5/5
f 470/5/5 467/5/5 466/5/5
f 471/8/5 468/8/5 467/8/5
f 471/5/5 467/5/5 470/5/5
f 472/5/5 469/5/5 468/5/5
f 472/8/5 468/8/5 471/8/5
f 473/7/5 471/7/5 470/7/5
f 474/5/5 472/5/5 471/5/5
f 474/7/5 471/7/5 473/7/5
f 475/5/5 469/5/5 472/5/5
f 475/5/5 472/5/5 474/5/5
f 476/5/5 469/5/5 475/5/5
f 477/8/6 478/8/6 489/8/6
f 489/8/6 478/8/6 490/8/6
f 479/8/6 480/8/6 491/8/6
f 491/8/6 480/8/6 492/8/6
f 481/8/6 482/8/6 493/8/6
f 493/8/6 482/8/6 494/8/6
f 483/8/6 484/8/6 495/8/6
f 495/8/6 484/8/6 496/8/6
f 485/5/6 486/5/6 497/5/6
f 486/6/6 487/6/6 498/6/6
f 497/5/6 486/5/6 498/5/6
f 498/6/6 487/6/6 499/6/6
f 487/8/6 488/8/6 500/8/6
f 499/6/6 487/6/6 500/6/6
f 500/8/6 488/8/6 501/8/6
f 502/8/6 503/8/6 506/8/6
f 506/8/6 503/8/6 507/8/6
f 504/8/6 505/8/6 508/8/6
f 508/8/6 505/8/6 509/8/6
f 510/8/6 511/8/6 514/8/6
f 514/8/6 511/8/6 515/8/6
f 512/8/6 513/8/6 516/8/6
f 516/8/6 513/8/6 517/8/6
f 518/5/6 519/5/6 520/5/6
f 520/5/6 519/5/6 521/5/6
f 520/7/6 521/7/6 522/7/6
f 522/7/6 521/7/6 523/7/6
f 523/7/6 521/7/6 524/7/6
f 525/5/6 526/5/6 530/5/6
f 526/8/6 527/8/6 531/8/6
f 530/5/6 526/5/6 531/5/6
f 527/5/6 528/5/6 532/5/6
f 531/8/6 527/8/6 532/8/6
f 528/7/6 529/7/6 533/7/6
f 532/5/6 528/5/6 533/5/6
f 533/7/6 529/7/6 534/7/6
f 530/8/6 531/8/6 535/8/6
f 531/5/6 532/5/6 536/5/6
f 535/8/6 531/8/6 536/8/6
f 532/8/6 533/8/6 537/8/6
f 536/5/6 532/5/6 537/5/6
f 533/5/6 534/5/6 538/5/6
f 537/8/6 533/8/6 538/8/6
f 538/5/6 534/5/6 539/5/6
f 540/4/6 541/4/6 557/4/6
f 541/2/6 542/2/6 557/2/6
f 542/1/6 543/1/6 558/1/6
f 557/2/6 542/2/6 558/2/6
f 543/8/6 544/8/6 559/8/6
f 558/1/6 543/1/6 559/1/6
f 544/4/6 545/4/6 560/4/6
f 559/8/6 544/8/6 560/8/6
f 560/4/6 545/4/6 561/4/6
f 545/1/6 546/1/6 562/1/6
f 561/4/6 545/4/6 562/4/6
f 546/3/6 547/3/6 563/3/6
f 562/1/6 546/1/6 563/1/6
f 547/2/6 548/2/6 564/2/6
f 563/3/6 547/3/6 564/3/6
f 548/1/6 549/1/6 565/1/6
f 564/2/6 548/2/6 565/2/6
f 565/1/6 549/1/6 566/1/6
f 549/2/6 550/2/6 567/2/6
f 566/1/6 549/1/6 567/1/6
f 550/8/6 551/8/6 568/8/6
f 567/2/6 550/2/6 568/2/6
f 551/4/6 552/4/6 569/4/6
f 568/8/6 551/8/6 569/8/6
f 552/2/6 553/2/6 570/2/6
f 569/4/6 552/4/6 570/4/6
f 553/8/6 554/8/6 571/8/6
f 570/2/6 553/2/6 571/2/6
f 554/2/6 555/2/6 572/2/6
f 571/8/6 554/8/6 572/8/6
f 555/1/6 556/1/6 573/1/6
f 572/2/6 555/2/6 573/2/6
f 573/1/6 556/1/6 574/1/6
f 540/4/6 557/4/6 575/4/6
f 557/8/6 558/8/6 576/8/6
f 575/4/6 557/4/6 576/4/6
f 558/3/6 559/3/6 577/3/6
f 576/8/6 558/8/6 577/8/6
f 559/4/6 560/4/6 578/4/6
f 577/3/6 559/3/6 578/3/6
f 560/2/6 561/2/6 579/2/6
f 578/4/6 560/4/6 579/4/6
f 561/3/6 562/3/6 580/3/6
f 579/2/6 561/2/6 580/2/6
f 562/3/6 563/3/6 580/3/6
f 563/3/6 564/3/6 580/3/6
f 564/3/6 565/3/6 580/3/6
f 565/4/6 566/4/6 581/4/6
f 580/3/6 565/3/6 581/3/6
f 566/8/6 567/8/6 582/8/6
f 581/4/6 566/4/6 582/4/6
f 567/4/6 568/4/6 583/4/6
f 582/8/6 567/8/6 583/8/6
f 568/1/6 569/1/6 584/1/6
f 583/4/6 568/4/6 584/4/6
f 570/3/6 571/3/6 585/3/6
f 584/1/6 569/1/6 585/1/6
f 569/3/6 570/3/6 585/3/6
f 571/4/6 572/4/6 586/4/6
f 585/3/6 571/3/6 586/3/6
f 572/3/6 573/3/6 587/3/6
f 586/4/6 572/4/6 587/4/6
f 573/2/6 574/2/6 588/2/6
f 587/3/6 573/3/6 588/3/6
f 588/2/6 574/2/6 589/2/6
f 590/5/6 591/5/6 595/5/6
f 591/6/6 592/6/6 596/6/6
f 595/5/6 591/5/6 596/5/6
f 592/7/6 593/7/6 597/7/6
f 596/6/6 592/6/6 597/6/6
f 593/6/6 594/6/6 598/6/6
f 597/7/6 593/7/6 598/7/6
f 598/6/6 594/6/6 599/6/6
f 595/7/6 596/7/6 600/7/6
f 596/6/6 597/6/6 601/6/6
f 600/7/6 596/7/6 601/7/6
f 597/8/6 598/8/6 602/8/6
f 601/6/6 597/6/6 602/6/6
f 598/7/6 599/7/6 603/7/6
f 602/8/6 598/8/6 603/8/6
f 603/7/6 599/7/6 604/7/6
f 600/5/6 601/5/6 605/5/6
f 601/8/6 602/8/6 606/8/6
f 605/5/6 601/5/6 606/5/6
f 602/5/6 603/5/6 607/5/6
f 606/8/6 602/8/6 607/8/6
f 603/5/6 604/5/6 607/5/6
f 607/5/6 604/5/6 608/5/6
f 608/5/6 604/5/6 609/5/6
f 605/7/6 606/7/6 610/7/6
f 606/5/6 607/5/6 611/5/6
f 610/7/6 606/7/6 611/7/6
f 607/7/6 608/7/6 612/7/6
f 611/5/6 607/5/6 612/5/6
f 608/6/6 609/6/6 613/6/6
f 612/7/6 608/7/6 613/7/6
f 613/6/6 609/6/6 614/6/6
