# MagicaVoxel @ Ephtracy

# group
o 

# material
mtllib Pots and flowers-4.mtl
usemtl palette

# normals
vn -1 0 0
vn 1 0 0
vn 0 0 1
vn 0 0 -1
vn 0 -1 0
vn 0 1 0

# texcoords
vt 0.501953 0.5
vt 0.505859 0.5
vt 0.845703 0.5

# verts
v -0.4 -0.1 0.2
v -0.4 -0.1 -0.3
v -0.4 0 0.2
v -0.4 0 0
v -0.4 0.1 0.2
v -0.4 0.1 0
v -0.4 0.2 0.1
v -0.4 0.2 0
v -0.4 0.2 -0.2
v -0.4 0.2 -0.3
v -0.4 0.3 0.2
v -0.4 0.3 0.1
v -0.4 0.3 0
v -0.4 0.3 -0.2
v -0.4 0.3 -0.3
v -0.3 -0.3 0.2
v -0.3 -0.3 0.1
v -0.3 -0.3 0
v -0.3 -0.3 -0.3
v -0.3 -0.2 0.1
v -0.3 -0.2 0
v -0.3 -0.2 -0.1
v -0.3 -0.2 -0.3
v -0.3 -0.1 0.3
v -0.3 -0.1 0.2
v -0.3 -0.1 -0.1
v -0.3 -0.1 -0.3
v -0.3 -0.1 -0.4
v -0.3 0 0.3
v -0.3 0 0.2
v -0.3 0 -0.3
v -0.3 0 -0.4
v -0.3 0.1 0.3
v -0.3 0.1 0.2
v -0.3 0.1 -0.3
v -0.3 0.1 -0.4
v -0.3 0.2 0.3
v -0.3 0.2 0.2
v -0.3 0.2 -0.3
v -0.3 0.2 -0.4
v -0.3 0.3 0.3
v -0.3 0.3 0.2
v -0.3 0.3 -0.3
v -0.3 0.3 -0.4
v -0.2 -0.3 0.3
v -0.2 -0.3 0.2
v -0.2 -0.3 -0.3
v -0.2 -0.3 -0.4
v -0.2 -0.2 -0.3
v -0.2 -0.2 -0.4
v -0.2 -0.1 0.4
v -0.2 -0.1 0.3
v -0.2 -0.1 0.2
v -0.2 -0.1 -0.3
v -0.2 -0.1 -0.4
v -0.2 -0.1 -0.5
v -0.2 0 0.4
v -0.2 0 0.3
v -0.2 0 -0.4
v -0.2 0 -0.5
v -0.2 0.1 0.4
v -0.2 0.1 0.3
v -0.2 0.1 -0.4
v -0.2 0.2 0.4
v -0.2 0.2 0.3
v -0.2 0.2 -0.4
v -0.2 0.2 -0.5
v -0.2 0.3 0.4
v -0.2 0.3 0.3
v -0.2 0.3 -0.4
v -0.2 0.3 -0.5
v 0.3 0.2 0.3
v 0.3 0.2 0.2
v 0.3 0.2 -0.3
v 0.3 0.2 -0.4
v 0.3 0.3 0.3
v 0.3 0.3 0.2
v 0.3 0.3 -0.3
v 0.3 0.3 -0.4
v 0.4 0.2 0.2
v 0.4 0.2 0
v 0.4 0.2 -0.3
v 0.4 0.3 0.2
v 0.4 0.3 0
v 0.4 0.3 -0.3
v -0.3 0.2 0.2
v -0.3 0.2 0.1
v -0.3 0.2 0
v -0.3 0.2 -0.2
v -0.3 0.2 -0.3
v -0.3 0.3 0.2
v -0.3 0.3 0.1
v -0.3 0.3 0
v -0.3 0.3 -0.2
v -0.3 0.3 -0.3
v -0.2 0.2 0.3
v -0.2 0.2 0.2
v -0.2 0.2 -0.3
v -0.2 0.2 -0.4
v -0.2 0.3 0.3
v -0.2 0.3 0.2
v -0.2 0.3 -0.3
v -0.2 0.3 -0.4
v 0.3 -0.3 0.3
v 0.3 -0.3 0.2
v 0.3 -0.3 -0.3
v 0.3 -0.3 -0.4
v 0.3 -0.2 0.3
v 0.3 -0.2 0.2
v 0.3 -0.2 -0.3
v 0.3 -0.2 -0.4
v 0.3 -0.1 0.4
v 0.3 -0.1 0.3
v 0.3 -0.1 0.2
v 0.3 -0.1 -0.3
v 0.3 -0.1 -0.4
v 0.3 -0.1 -0.5
v 0.3 0 0.4
v 0.3 0 0.3
v 0.3 0 -0.4
v 0.3 0 -0.5
v 0.3 0.1 -0.4
v 0.3 0.1 -0.5
v 0.3 0.2 0.4
v 0.3 0.2 0.3
v 0.3 0.2 -0.4
v 0.3 0.2 -0.5
v 0.3 0.3 0.4
v 0.3 0.3 0.3
v 0.3 0.3 -0.4
v 0.3 0.3 -0.5
v 0.4 -0.3 0.2
v 0.4 -0.3 0.1
v 0.4 -0.3 0
v 0.4 -0.3 -0.1
v 0.4 -0.3 -0.2
v 0.4 -0.3 -0.3
v 0.4 -0.1 0.3
v 0.4 -0.1 0.2
v 0.4 -0.1 0.1
v 0.4 -0.1 0
v 0.4 -0.1 -0.1
v 0.4 -0.1 -0.2
v 0.4 -0.1 -0.3
v 0.4 -0.1 -0.4
v 0.4 0 0.3
v 0.4 0 0.2
v 0.4 0 -0.3
v 0.4 0.1 -0.3
v 0.4 0.2 0.3
v 0.4 0.2 0.2
v 0.4 0.3 0.3
v 0.4 0.3 0.2
v 0.4 0.3 -0.3
v 0.4 0.3 -0.4
v 0.5 -0.1 0.2
v 0.5 -0.1 -0.2
v 0.5 -0.1 -0.3
v 0.5 0 0.2
v 0.5 0 0.1
v 0.5 0 0
v 0.5 0 -0.2
v 0.5 0 -0.3
v 0.5 0.1 0.1
v 0.5 0.1 0
v 0.5 0.1 -0.1
v 0.5 0.1 -0.2
v 0.5 0.1 -0.3
v 0.5 0.2 0.2
v 0.5 0.2 0
v 0.5 0.2 -0.1
v 0.5 0.3 0.2
v 0.5 0.3 0
v 0.5 0.3 -0.3
v -0.2 -0.1 0.4
v -0.2 0 0.4
v -0.2 0.1 0.4
v -0.2 0.2 0.4
v -0.2 0.3 0.4
v -0.1 0 0.4
v -0.1 0.1 0.4
v 0 -0.1 0.4
v 0 0 0.4
v 0 0.1 0.4
v 0 0.2 0.4
v 0 0.3 0.4
v 0.1 0.1 0.4
v 0.1 0.2 0.4
v 0.2 -0.1 0.4
v 0.2 0 0.4
v 0.2 0.2 0.4
v 0.3 -0.1 0.4
v 0.3 0 0.4
v 0.3 0.2 0.4
v 0.3 0.3 0.4
v -0.3 -0.1 0.3
v -0.3 0 0.3
v -0.3 0.1 0.3
v -0.3 0.2 0.3
v -0.3 0.3 0.3
v -0.2 -0.3 0.3
v -0.2 -0.1 0.3
v -0.2 0 0.3
v -0.2 0.1 0.3
v -0.2 0.2 0.3
v -0.2 0.3 0.3
v -0.1 -0.3 0.3
v -0.1 -0.2 0.3
v 0 -0.2 0.3
v 0 -0.1 0.3
v 0.1 -0.3 0.3
v 0.1 -0.2 0.3
v 0.2 -0.3 0.3
v 0.2 -0.2 0.3
v 0.2 -0.1 0.3
v 0.3 -0.3 0.3
v 0.3 -0.2 0.3
v 0.3 -0.1 0.3
v 0.3 0 0.3
v 0.3 0.2 0.3
v 0.3 0.3 0.3
v 0.4 -0.1 0.3
v 0.4 0 0.3
v 0.4 0.2 0.3
v 0.4 0.3 0.3
v -0.4 -0.1 0.2
v -0.4 0 0.2
v -0.4 0.1 0.2
v -0.4 0.3 0.2
v -0.3 -0.3 0.2
v -0.3 -0.1 0.2
v -0.3 0 0.2
v -0.3 0.1 0.2
v -0.3 0.2 0.2
v -0.3 0.3 0.2
v -0.2 -0.3 0.2
v -0.2 -0.1 0.2
v 0.3 -0.3 0.2
v 0.3 -0.2 0.2
v 0.3 -0.1 0.2
v 0.4 -0.3 0.2
v 0.4 -0.1 0.2
v 0.4 0 0.2
v 0.4 0.2 0.2
v 0.4 0.3 0.2
v 0.5 -0.1 0.2
v 0.5 0 0.2
v 0.5 0.2 0.2
v 0.5 0.3 0.2
v -0.3 0.2 -0.3
v -0.3 0.3 -0.3
v -0.2 0.2 -0.3
v -0.2 0.3 -0.3
v 0.3 0.2 -0.3
v 0.3 0.3 -0.3
v 0.4 0.2 -0.3
v 0.4 0.3 -0.3
v -0.2 0.2 -0.4
v -0.2 0.3 -0.4
v 0.1 0.2 -0.4
v 0.1 0.3 -0.4
v 0.3 0.2 -0.4
v 0.3 0.3 -0.4
v -0.2 0.2 0.3
v -0.2 0.3 0.3
v 0 0.2 0.3
v 0 0.3 0.3
v 0.3 0.2 0.3
v 0.3 0.3 0.3
v -0.3 0.2 0.2
v -0.3 0.3 0.2
v -0.2 0.2 0.2
v -0.2 0.3 0.2
v 0.3 0.2 0.2
v 0.3 0.3 0.2
v 0.4 0.2 0.2
v 0.4 0.3 0.2
v -0.4 -0.1 -0.3
v -0.4 0.2 -0.3
v -0.4 0.3 -0.3
v -0.3 -0.3 -0.3
v -0.3 -0.2 -0.3
v -0.3 -0.1 -0.3
v -0.3 0 -0.3
v -0.3 0.1 -0.3
v -0.3 0.2 -0.3
v -0.3 0.3 -0.3
v -0.2 -0.3 -0.3
v -0.2 -0.2 -0.3
v -0.2 -0.1 -0.3
v 0.3 -0.3 -0.3
v 0.3 -0.2 -0.3
v 0.3 -0.1 -0.3
v 0.4 -0.3 -0.3
v 0.4 -0.1 -0.3
v 0.4 0 -0.3
v 0.4 0.1 -0.3
v 0.4 0.3 -0.3
v 0.5 -0.1 -0.3
v 0.5 0 -0.3
v 0.5 0.1 -0.3
v 0.5 0.3 -0.3
v -0.3 -0.1 -0.4
v -0.3 0 -0.4
v -0.3 0.1 -0.4
v -0.3 0.2 -0.4
v -0.3 0.3 -0.4
v -0.2 -0.3 -0.4
v -0.2 -0.2 -0.4
v -0.2 -0.1 -0.4
v -0.2 0 -0.4
v -0.2 0.1 -0.4
v -0.2 0.2 -0.4
v -0.2 0.3 -0.4
v -0.1 -0.2 -0.4
v -0.1 -0.1 -0.4
v 0 -0.3 -0.4
v 0 -0.2 -0.4
v 0 -0.1 -0.4
v 0.1 -0.3 -0.4
v 0.1 -0.2 -0.4
v 0.1 -0.1 -0.4
v 0.2 -0.3 -0.4
v 0.2 -0.2 -0.4
v 0.2 -0.1 -0.4
v 0.3 -0.3 -0.4
v 0.3 -0.2 -0.4
v 0.3 -0.1 -0.4
v 0.3 0 -0.4
v 0.3 0.1 -0.4
v 0.3 0.2 -0.4
v 0.3 0.3 -0.4
v 0.4 -0.1 -0.4
v 0.4 0.3 -0.4
v -0.2 -0.1 -0.5
v -0.2 0 -0.5
v -0.2 0.2 -0.5
v -0.2 0.3 -0.5
v -0.1 0 -0.5
v -0.1 0.1 -0.5
v 0 -0.1 -0.5
v 0 0 -0.5
v 0 0.1 -0.5
v 0 0.2 -0.5
v 0.1 0 -0.5
v 0.1 0.3 -0.5
v 0.2 -0.1 -0.5
v 0.2 0 -0.5
v 0.2 0.1 -0.5
v 0.2 0.2 -0.5
v 0.3 -0.1 -0.5
v 0.3 0 -0.5
v 0.3 0.1 -0.5
v 0.3 0.2 -0.5
v 0.3 0.3 -0.5
v -0.2 -0.3 0.3
v -0.1 -0.3 0.3
v 0.1 -0.3 0.3
v 0.2 -0.3 0.3
v 0.3 -0.3 0.3
v -0.3 -0.3 0.2
v -0.2 -0.3 0.2
v -0.1 -0.3 0.2
v 0 -0.3 0.2
v 0.1 -0.3 0.2
v 0.2 -0.3 0.2
v 0.3 -0.3 0.2
v 0.4 -0.3 0.2
v -0.3 -0.3 0.1
v -0.1 -0.3 0.1
v 0 -0.3 0.1
v 0.2 -0.3 0.1
v 0.3 -0.3 0.1
v 0.4 -0.3 0.1
v -0.3 -0.3 0
v -0.2 -0.3 0
v -0.1 -0.3 0
v 0 -0.3 0
v 0.1 -0.3 0
v 0.2 -0.3 0
v 0.3 -0.3 0
v 0.4 -0.3 0
v -0.1 -0.3 -0.1
v 0.1 -0.3 -0.1
v 0.2 -0.3 -0.1
v 0.4 -0.3 -0.1
v -0.1 -0.3 -0.2
v 0 -0.3 -0.2
v 0.3 -0.3 -0.2
v 0.4 -0.3 -0.2
v -0.3 -0.3 -0.3
v -0.2 -0.3 -0.3
v 0 -0.3 -0.3
v 0.1 -0.3 -0.3
v 0.2 -0.3 -0.3
v 0.3 -0.3 -0.3
v 0.4 -0.3 -0.3
v -0.2 -0.3 -0.4
v 0 -0.3 -0.4
v 0.1 -0.3 -0.4
v 0.2 -0.3 -0.4
v 0.3 -0.3 -0.4
v -0.2 -0.1 0.4
v 0 -0.1 0.4
v 0.2 -0.1 0.4
v 0.3 -0.1 0.4
v -0.3 -0.1 0.3
v -0.2 -0.1 0.3
v 0 -0.1 0.3
v 0.2 -0.1 0.3
v 0.3 -0.1 0.3
v 0.4 -0.1 0.3
v -0.4 -0.1 0.2
v -0.3 -0.1 0.2
v -0.2 -0.1 0.2
v 0.3 -0.1 0.2
v 0.4 -0.1 0.2
v 0.5 -0.1 0.2
v 0.4 -0.1 0.1
v 0.4 -0.1 0
v -0.3 -0.1 -0.1
v 0.4 -0.1 -0.1
v 0.4 -0.1 -0.2
v 0.5 -0.1 -0.2
v -0.4 -0.1 -0.3
v -0.3 -0.1 -0.3
v -0.2 -0.1 -0.3
v 0.3 -0.1 -0.3
v 0.4 -0.1 -0.3
v 0.5 -0.1 -0.3
v -0.3 -0.1 -0.4
v -0.2 -0.1 -0.4
v -0.1 -0.1 -0.4
v 0 -0.1 -0.4
v 0.1 -0.1 -0.4
v 0.2 -0.1 -0.4
v 0.3 -0.1 -0.4
v 0.4 -0.1 -0.4
v -0.2 -0.1 -0.5
v 0 -0.1 -0.5
v 0.2 -0.1 -0.5
v 0.3 -0.1 -0.5
v -0.2 0.2 0.3
v 0 0.2 0.3
v 0.3 0.2 0.3
v -0.3 0.2 0.2
v -0.2 0.2 0.2
v 0.3 0.2 0.2
v 0.4 0.2 0.2
v -0.3 0.2 0.1
v -0.3 0.2 0
v 0.4 0.2 0
v -0.3 0.2 -0.2
v -0.3 0.2 -0.3
v -0.2 0.2 -0.3
v 0.3 0.2 -0.3
v 0.4 0.2 -0.3
v -0.2 0.2 -0.4
v 0.1 0.2 -0.4
v 0.3 0.2 -0.4
v -0.2 0.3 0.4
v 0 0.3 0.4
v 0.3 0.3 0.4
v -0.3 0.3 0.3
v -0.2 0.3 0.3
v 0 0.3 0.3
v 0.3 0.3 0.3
v 0.4 0.3 0.3
v -0.4 0.3 0.2
v -0.3 0.3 0.2
v -0.2 0.3 0.2
v 0.3 0.3 0.2
v 0.4 0.3 0.2
v 0.5 0.3 0.2
v -0.4 0.3 0.1
v -0.3 0.3 0.1
v -0.4 0.3 0
v -0.3 0.3 0
v 0.4 0.3 0
v 0.5 0.3 0
v -0.4 0.3 -0.2
v -0.3 0.3 -0.2
v -0.4 0.3 -0.3
v -0.3 0.3 -0.3
v -0.2 0.3 -0.3
v 0.3 0.3 -0.3
v 0.4 0.3 -0.3
v 0.5 0.3 -0.3
v -0.3 0.3 -0.4
v -0.2 0.3 -0.4
v 0.1 0.3 -0.4
v 0.3 0.3 -0.4
v 0.4 0.3 -0.4
v -0.2 0.3 -0.5
v 0.1 0.3 -0.5
v 0.3 0.3 -0.5

# faces
f 3/2/1 2/2/1 1/2/1
f 4/2/1 2/2/1 3/2/1
f 5/1/1 4/1/1 3/1/1
f 6/2/1 2/2/1 4/2/1
f 6/1/1 4/1/1 5/1/1
f 7/2/1 6/2/1 5/2/1
f 8/2/1 2/2/1 6/2/1
f 8/2/1 6/2/1 7/2/1
f 9/2/1 2/2/1 8/2/1
f 10/2/1 2/2/1 9/2/1
f 11/2/1 7/2/1 5/2/1
f 12/1/1 8/1/1 7/1/1
f 12/2/1 7/2/1 11/2/1
f 13/2/1 9/2/1 8/2/1
f 13/1/1 8/1/1 12/1/1
f 14/1/1 10/1/1 9/1/1
f 14/2/1 9/2/1 13/2/1
f 15/1/1 10/1/1 14/1/1
f 20/2/1 17/2/1 16/2/1
f 20/1/1 18/1/1 17/1/1
f 21/2/1 19/2/1 18/2/1
f 21/1/1 18/1/1 20/1/1
f 22/2/1 19/2/1 21/2/1
f 23/2/1 19/2/1 22/2/1
f 25/2/1 20/2/1 16/2/1
f 25/2/1 21/2/1 20/2/1
f 25/2/1 22/2/1 21/2/1
f 26/1/1 23/1/1 22/1/1
f 26/2/1 22/2/1 25/2/1
f 27/1/1 23/1/1 26/1/1
f 29/1/1 25/1/1 24/1/1
f 30/1/1 25/1/1 29/1/1
f 31/1/1 28/1/1 27/1/1
f 32/1/1 28/1/1 31/1/1
f 33/2/1 30/2/1 29/2/1
f 34/2/1 30/2/1 33/2/1
f 35/2/1 32/2/1 31/2/1
f 36/2/1 32/2/1 35/2/1
f 37/1/1 34/1/1 33/1/1
f 38/1/1 34/1/1 37/1/1
f 39/1/1 36/1/1 35/1/1
f 40/1/1 36/1/1 39/1/1
f 41/2/1 38/2/1 37/2/1
f 42/2/1 38/2/1 41/2/1
f 43/2/1 40/2/1 39/2/1
f 44/2/1 40/2/1 43/2/1
f 49/2/1 48/2/1 47/2/1
f 50/2/1 48/2/1 49/2/1
f 52/1/1 46/1/1 45/1/1
f 53/1/1 46/1/1 52/1/1
f 54/1/1 50/1/1 49/1/1
f 55/1/1 50/1/1 54/1/1
f 57/1/1 52/1/1 51/1/1
f 58/1/1 52/1/1 57/1/1
f 59/2/1 56/2/1 55/2/1
f 60/2/1 56/2/1 59/2/1
f 61/2/1 58/2/1 57/2/1
f 62/2/1 58/2/1 61/2/1
f 63/1/1 60/1/1 59/1/1
f 64/1/1 62/1/1 61/1/1
f 65/1/1 62/1/1 64/1/1
f 66/1/1 60/1/1 63/1/1
f 67/1/1 60/1/1 66/1/1
f 68/2/1 65/2/1 64/2/1
f 69/2/1 65/2/1 68/2/1
f 70/2/1 67/2/1 66/2/1
f 71/2/1 67/2/1 70/2/1
f 76/1/1 73/1/1 72/1/1
f 77/1/1 73/1/1 76/1/1
f 78/2/1 75/2/1 74/2/1
f 79/2/1 75/2/1 78/2/1
f 83/2/1 81/2/1 80/2/1
f 84/1/1 82/1/1 81/1/1
f 84/2/1 81/2/1 83/2/1
f 85/1/1 82/1/1 84/1/1
f 86/2/2 87/2/2 91/2/2
f 87/1/2 88/1/2 92/1/2
f 91/2/2 87/2/2 92/2/2
f 88/2/2 89/2/2 93/2/2
f 92/1/2 88/1/2 93/1/2
f 89/1/2 90/1/2 94/1/2
f 93/2/2 89/2/2 94/2/2
f 94/1/2 90/1/2 95/1/2
f 96/2/2 97/2/2 100/2/2
f 100/2/2 97/2/2 101/2/2
f 98/2/2 99/2/2 102/2/2
f 102/2/2 99/2/2 103/2/2
f 104/2/2 105/2/2 108/2/2
f 108/2/2 105/2/2 109/2/2
f 106/1/2 107/1/2 110/1/2
f 110/1/2 107/1/2 111/1/2
f 108/1/2 109/1/2 113/1/2
f 113/1/2 109/1/2 114/1/2
f 110/2/2 111/2/2 115/2/2
f 115/2/2 111/2/2 116/2/2
f 112/1/2 113/1/2 118/1/2
f 118/1/2 113/1/2 119/1/2
f 116/2/2 117/2/2 120/2/2
f 120/2/2 117/2/2 121/2/2
f 120/1/2 121/1/2 122/1/2
f 122/1/2 121/1/2 123/1/2
f 118/2/2 119/2/2 124/2/2
f 124/2/2 119/2/2 125/2/2
f 122/2/2 123/2/2 126/2/2
f 126/2/2 123/2/2 127/2/2
f 124/1/2 125/1/2 128/1/2
f 128/1/2 125/1/2 129/1/2
f 126/1/2 127/1/2 130/1/2
f 130/1/2 127/1/2 131/1/2
f 132/1/2 133/1/2 139/1/2
f 133/2/2 134/2/2 140/2/2
f 139/1/2 133/1/2 140/1/2
f 134/1/2 135/1/2 141/1/2
f 140/2/2 134/2/2 141/2/2
f 135/2/2 136/2/2 142/2/2
f 141/1/2 135/1/2 142/1/2
f 136/1/2 137/1/2 143/1/2
f 142/2/2 136/2/2 143/2/2
f 143/1/2 137/1/2 144/1/2
f 138/1/2 139/1/2 146/1/2
f 146/1/2 139/1/2 147/1/2
f 144/2/2 145/2/2 148/2/2
f 148/2/2 145/2/2 149/2/2
f 146/2/2 147/2/2 150/2/2
f 150/2/2 147/2/2 151/2/2
f 150/1/2 151/1/2 152/1/2
f 152/1/2 151/1/2 153/1/2
f 149/2/2 145/2/2 154/2/2
f 154/2/2 145/2/2 155/2/2
f 156/2/2 157/2/2 159/2/2
f 159/2/2 157/2/2 160/2/2
f 160/2/2 157/2/2 161/2/2
f 157/1/2 158/1/2 162/1/2
f 161/2/2 157/2/2 162/2/2
f 162/1/2 158/1/2 163/1/2
f 160/2/2 161/2/2 164/2/2
f 159/1/2 160/1/2 164/1/2
f 161/1/2 162/1/2 165/1/2
f 164/2/2 161/2/2 165/2/2
f 165/1/2 162/1/2 166/1/2
f 162/2/2 163/2/2 167/2/2
f 166/1/2 162/1/2 167/1/2
f 167/2/2 163/2/2 168/2/2
f 159/1/2 164/1/2 169/1/2
f 164/1/2 165/1/2 169/1/2
f 165/2/2 166/2/2 170/2/2
f 169/1/2 165/1/2 170/1/2
f 167/1/2 168/1/2 171/1/2
f 170/2/2 166/2/2 171/2/2
f 166/1/2 167/1/2 171/1/2
f 169/2/2 170/2/2 172/2/2
f 170/1/2 171/1/2 173/1/2
f 172/2/2 170/2/2 173/2/2
f 171/1/2 168/1/2 174/1/2
f 173/1/2 171/1/2 174/1/2
f 180/1/3 176/1/3 175/1/3
f 180/2/3 177/2/3 176/2/3
f 181/1/3 178/1/3 177/1/3
f 181/2/3 177/2/3 180/2/3
f 182/1/3 180/1/3 175/1/3
f 182/1/3 181/1/3 180/1/3
f 183/1/3 181/1/3 182/1/3
f 184/1/3 178/1/3 181/1/3
f 184/1/3 181/1/3 183/1/3
f 185/2/3 179/2/3 178/2/3
f 185/1/3 178/1/3 184/1/3
f 186/2/3 179/2/3 185/2/3
f 187/1/3 184/1/3 183/1/3
f 187/2/3 185/2/3 184/2/3
f 188/1/3 186/1/3 185/1/3
f 188/2/3 185/2/3 187/2/3
f 189/2/3 183/2/3 182/2/3
f 190/1/3 187/1/3 183/1/3
f 190/2/3 183/2/3 189/2/3
f 190/1/3 188/1/3 187/1/3
f 191/1/3 186/1/3 188/1/3
f 191/1/3 188/1/3 190/1/3
f 192/1/3 190/1/3 189/1/3
f 193/2/3 191/2/3 190/2/3
f 193/1/3 190/1/3 192/1/3
f 194/1/3 186/1/3 191/1/3
f 194/2/3 191/2/3 193/2/3
f 195/1/3 186/1/3 194/1/3
f 202/1/3 197/1/3 196/1/3
f 203/2/3 198/2/3 197/2/3
f 203/1/3 197/1/3 202/1/3
f 204/1/3 199/1/3 198/1/3
f 204/2/3 198/2/3 203/2/3
f 205/2/3 200/2/3 199/2/3
f 205/1/3 199/1/3 204/1/3
f 206/2/3 200/2/3 205/2/3
f 207/1/3 202/1/3 201/1/3
f 208/1/3 202/1/3 207/1/3
f 209/2/3 208/2/3 207/2/3
f 209/1/3 202/1/3 208/1/3
f 210/1/3 202/1/3 209/1/3
f 211/2/3 209/2/3 207/2/3
f 211/2/3 210/2/3 209/2/3
f 212/2/3 210/2/3 211/2/3
f 213/1/3 212/1/3 211/1/3
f 214/2/3 210/2/3 212/2/3
f 214/1/3 212/1/3 213/1/3
f 215/2/3 210/2/3 214/2/3
f 216/2/3 214/2/3 213/2/3
f 217/1/3 215/1/3 214/1/3
f 217/2/3 214/2/3 216/2/3
f 218/1/3 215/1/3 217/1/3
f 222/1/3 219/1/3 218/1/3
f 223/2/3 220/2/3 219/2/3
f 223/1/3 219/1/3 222/1/3
f 224/1/3 221/1/3 220/1/3
f 224/2/3 220/2/3 223/2/3
f 225/1/3 221/1/3 224/1/3
f 231/2/3 227/2/3 226/2/3
f 232/1/3 228/1/3 227/1/3
f 232/2/3 227/2/3 231/2/3
f 233/2/3 229/2/3 228/2/3
f 233/1/3 228/1/3 232/1/3
f 234/2/3 229/2/3 233/2/3
f 235/2/3 229/2/3 234/2/3
f 236/2/3 231/2/3 230/2/3
f 237/2/3 231/2/3 236/2/3
f 241/1/3 239/1/3 238/1/3
f 241/1/3 240/1/3 239/1/3
f 242/1/3 240/1/3 241/1/3
f 246/2/3 243/2/3 242/2/3
f 247/1/3 244/1/3 243/1/3
f 247/2/3 243/2/3 246/2/3
f 248/2/3 245/2/3 244/2/3
f 248/1/3 244/1/3 247/1/3
f 249/2/3 245/2/3 248/2/3
f 252/2/3 251/2/3 250/2/3
f 253/2/3 251/2/3 252/2/3
f 256/2/3 255/2/3 254/2/3
f 257/2/3 255/2/3 256/2/3
f 260/2/3 259/2/3 258/2/3
f 261/2/3 259/2/3 260/2/3
f 262/1/3 261/1/3 260/1/3
f 263/1/3 261/1/3 262/1/3
f 264/2/4 265/2/4 266/2/4
f 266/2/4 265/2/4 267/2/4
f 266/1/4 267/1/4 268/1/4
f 268/1/4 267/1/4 269/1/4
f 270/2/4 271/2/4 272/2/4
f 272/2/4 271/2/4 273/2/4
f 274/1/4 275/1/4 276/1/4
f 276/1/4 275/1/4 277/1/4
f 278/2/4 279/2/4 283/2/4
f 283/2/4 279/2/4 284/2/4
f 284/2/4 279/2/4 285/2/4
f 279/1/4 280/1/4 286/1/4
f 285/2/4 279/2/4 286/2/4
f 286/1/4 280/1/4 287/1/4
f 281/2/4 282/2/4 288/2/4
f 282/1/4 283/1/4 289/1/4
f 288/2/4 282/2/4 289/2/4
f 289/1/4 283/1/4 290/1/4
f 291/1/4 292/1/4 294/1/4
f 292/1/4 293/1/4 294/1/4
f 294/1/4 293/1/4 295/1/4
f 295/1/4 296/1/4 299/1/4
f 296/2/4 297/2/4 300/2/4
f 299/1/4 296/1/4 300/1/4
f 297/1/4 298/1/4 301/1/4
f 300/2/4 297/2/4 301/2/4
f 301/1/4 298/1/4 302/1/4
f 303/1/4 304/1/4 310/1/4
f 304/2/4 305/2/4 311/2/4
f 310/1/4 304/1/4 311/1/4
f 305/1/4 306/1/4 312/1/4
f 311/2/4 305/2/4 312/2/4
f 306/2/4 307/2/4 313/2/4
f 312/1/4 306/1/4 313/1/4
f 313/2/4 307/2/4 314/2/4
f 308/2/4 309/2/4 315/2/4
f 309/1/4 310/1/4 315/1/4
f 315/1/4 310/1/4 316/1/4
f 308/2/4 315/2/4 317/2/4
f 315/2/4 316/2/4 317/2/4
f 317/2/4 316/2/4 318/2/4
f 318/2/4 316/2/4 319/2/4
f 317/1/4 318/1/4 320/1/4
f 318/2/4 319/2/4 321/2/4
f 320/1/4 318/1/4 321/1/4
f 321/2/4 319/2/4 322/2/4
f 320/2/4 321/2/4 323/2/4
f 321/1/4 322/1/4 324/1/4
f 323/2/4 321/2/4 324/2/4
f 324/1/4 322/1/4 325/1/4
f 323/1/4 324/1/4 326/1/4
f 324/2/4 325/2/4 327/2/4
f 326/1/4 324/1/4 327/1/4
f 327/2/4 325/2/4 328/2/4
f 331/2/4 332/2/4 333/2/4
f 330/2/4 331/2/4 333/2/4
f 329/2/4 330/2/4 333/2/4
f 328/2/4 329/2/4 333/2/4
f 333/2/4 332/2/4 334/2/4
f 335/2/4 336/2/4 339/2/4
f 336/1/4 337/1/4 339/1/4
f 339/1/4 337/1/4 340/1/4
f 335/2/4 339/2/4 341/2/4
f 339/2/4 340/2/4 341/2/4
f 341/2/4 340/2/4 342/2/4
f 340/1/4 337/1/4 343/1/4
f 342/2/4 340/2/4 343/2/4
f 337/2/4 338/2/4 344/2/4
f 343/1/4 337/1/4 344/1/4
f 342/2/4 343/2/4 345/2/4
f 341/1/4 342/1/4 345/1/4
f 343/2/4 344/2/4 345/2/4
f 344/2/4 338/2/4 346/2/4
f 345/2/4 344/2/4 346/2/4
f 341/1/4 345/1/4 347/1/4
f 345/1/4 346/1/4 347/1/4
f 347/1/4 346/1/4 348/1/4
f 348/1/4 346/1/4 349/1/4
f 349/1/4 346/1/4 350/1/4
f 347/2/4 348/2/4 351/2/4
f 348/1/4 349/1/4 352/1/4
f 351/2/4 348/2/4 352/2/4
f 349/2/4 350/2/4 353/2/4
f 352/1/4 349/1/4 353/1/4
f 350/1/4 346/1/4 354/1/4
f 353/2/4 350/2/4 354/2/4
f 354/1/4 346/1/4 355/1/4
f 362/1/5 357/1/5 356/1/5
f 363/2/5 358/2/5 357/2/5
f 363/1/5 357/1/5 362/1/5
f 364/2/5 358/2/5 363/2/5
f 365/1/5 359/1/5 358/1/5
f 365/2/5 358/2/5 364/2/5
f 366/2/5 360/2/5 359/2/5
f 366/1/5 359/1/5 365/1/5
f 367/2/5 360/2/5 366/2/5
f 369/2/5 362/2/5 361/2/5
f 369/2/5 363/2/5 362/2/5
f 370/1/5 364/1/5 363/1/5
f 370/2/5 363/2/5 369/2/5
f 371/2/5 365/2/5 364/2/5
f 371/1/5 364/1/5 370/1/5
f 371/2/5 366/2/5 365/2/5
f 372/1/5 368/1/5 367/1/5
f 372/2/5 366/2/5 371/2/5
f 372/1/5 367/1/5 366/1/5
f 373/1/5 368/1/5 372/1/5
f 374/1/5 368/1/5 373/1/5
f 375/1/5 370/1/5 369/1/5
f 376/1/5 370/1/5 375/1/5
f 377/2/5 371/2/5 370/2/5
f 377/1/5 370/1/5 376/1/5
f 378/1/5 372/1/5 371/1/5
f 378/2/5 371/2/5 377/2/5
f 378/1/5 373/1/5 372/1/5
f 379/1/5 373/1/5 378/1/5
f 380/1/5 373/1/5 379/1/5
f 381/2/5 374/2/5 373/2/5
f 381/1/5 373/1/5 380/1/5
f 382/2/5 374/2/5 381/2/5
f 383/1/5 377/1/5 376/1/5
f 383/1/5 378/1/5 377/1/5
f 383/1/5 379/1/5 378/1/5
f 384/2/5 380/2/5 379/2/5
f 384/1/5 379/1/5 383/1/5
f 385/1/5 382/1/5 381/1/5
f 385/2/5 380/2/5 384/2/5
f 385/1/5 381/1/5 380/1/5
f 386/1/5 382/1/5 385/1/5
f 387/1/5 383/1/5 376/1/5
f 387/2/5 384/2/5 383/2/5
f 388/2/5 384/2/5 387/2/5
f 389/2/5 386/2/5 385/2/5
f 390/2/5 386/2/5 389/2/5
f 391/2/5 376/2/5 375/2/5
f 392/1/5 387/1/5 376/1/5
f 392/2/5 376/2/5 391/2/5
f 392/1/5 388/1/5 387/1/5
f 393/2/5 384/2/5 388/2/5
f 393/1/5 388/1/5 392/1/5
f 394/1/5 385/1/5 384/1/5
f 394/2/5 384/2/5 393/2/5
f 395/2/5 389/2/5 385/2/5
f 395/1/5 385/1/5 394/1/5
f 396/1/5 390/1/5 389/1/5
f 396/2/5 389/2/5 395/2/5
f 397/1/5 390/1/5 396/1/5
f 398/2/5 393/2/5 392/2/5
f 399/1/5 394/1/5 393/1/5
f 399/2/5 393/2/5 398/2/5
f 400/2/5 395/2/5 394/2/5
f 400/1/5 394/1/5 399/1/5
f 401/1/5 396/1/5 395/1/5
f 401/2/5 395/2/5 400/2/5
f 402/1/5 396/1/5 401/1/5
f 408/1/5 404/1/5 403/1/5
f 409/2/5 405/2/5 404/2/5
f 409/1/5 404/1/5 408/1/5
f 410/1/5 406/1/5 405/1/5
f 410/2/5 405/2/5 409/2/5
f 411/1/5 406/1/5 410/1/5
f 414/1/5 408/1/5 407/1/5
f 415/1/5 408/1/5 414/1/5
f 416/1/5 412/1/5 411/1/5
f 417/1/5 412/1/5 416/1/5
f 419/2/5 418/2/5 417/2/5
f 420/2/5 418/2/5 419/2/5
f 421/2/5 414/2/5 413/2/5
f 422/2/5 418/2/5 420/2/5
f 423/2/5 418/2/5 422/2/5
f 424/2/5 418/2/5 423/2/5
f 425/2/5 421/2/5 413/2/5
f 426/2/5 421/2/5 425/2/5
f 429/1/5 424/1/5 423/1/5
f 430/1/5 424/1/5 429/1/5
f 431/1/5 427/1/5 426/1/5
f 432/1/5 427/1/5 431/1/5
f 437/2/5 429/2/5 428/2/5
f 438/2/5 429/2/5 437/2/5
f 439/2/5 433/2/5 432/2/5
f 439/2/5 434/2/5 433/2/5
f 440/1/5 436/1/5 435/1/5
f 440/2/5 434/2/5 439/2/5
f 440/1/5 435/1/5 434/1/5
f 441/2/5 437/2/5 436/2/5
f 441/1/5 436/1/5 440/1/5
f 442/2/5 437/2/5 441/2/5
f 443/3/6 444/3/6 447/3/6
f 444/3/6 445/3/6 447/3/6
f 447/3/6 445/3/6 448/3/6
f 446/3/6 447/3/6 450/3/6
f 448/3/6 449/3/6 450/3/6
f 447/3/6 448/3/6 450/3/6
f 450/3/6 449/3/6 451/3/6
f 451/3/6 449/3/6 452/3/6
f 451/3/6 452/3/6 453/3/6
f 453/3/6 452/3/6 454/3/6
f 454/3/6 452/3/6 455/3/6
f 455/3/6 452/3/6 456/3/6
f 456/3/6 452/3/6 457/3/6
f 455/3/6 456/3/6 458/3/6
f 458/3/6 456/3/6 459/3/6
f 459/3/6 456/3/6 460/3/6
f 461/2/6 462/2/6 465/2/6
f 462/1/6 463/1/6 466/1/6
f 465/2/6 462/2/6 466/2/6
f 466/1/6 463/1/6 467/1/6
f 464/2/6 465/2/6 470/2/6
f 470/2/6 465/2/6 471/2/6
f 467/1/6 468/1/6 472/1/6
f 472/1/6 468/1/6 473/1/6
f 469/2/6 470/2/6 475/2/6
f 475/2/6 470/2/6 476/2/6
f 475/1/6 476/1/6 477/1/6
f 477/1/6 476/1/6 478/1/6
f 473/2/6 474/2/6 479/2/6
f 479/2/6 474/2/6 480/2/6
f 477/2/6 478/2/6 481/2/6
f 481/2/6 478/2/6 482/2/6
f 481/1/6 482/1/6 483/1/6
f 483/1/6 482/1/6 484/1/6
f 479/1/6 480/1/6 487/1/6
f 487/1/6 480/1/6 488/1/6
f 484/2/6 485/2/6 489/2/6
f 489/2/6 485/2/6 490/2/6
f 486/2/6 487/2/6 492/2/6
f 492/2/6 487/2/6 493/2/6
f 490/2/6 491/2/6 494/2/6
f 491/1/6 492/1/6 495/1/6
f 494/2/6 491/2/6 495/2/6
f 495/1/6 492/1/6 496/1/6
